<?xml version="1.0" encoding="utf-8"?>
<!-- Generator: Adobe Illustrator 17.1.0, SVG Export Plug-In . SVG Version: 6.00 Build 0)  -->
<!DOCTYPE svg PUBLIC "-//W3C//DTD SVG 1.1//EN" "http://www.w3.org/Graphics/SVG/1.1/DTD/svg11.dtd">
<svg version="1.1" id="Layer_1" xmlns="http://www.w3.org/2000/svg" xmlns:xlink="http://www.w3.org/1999/xlink" x="0px" y="0px"
	 viewBox="0 0 1000 1000" enable-background="new 0 0 1000 1000" xml:space="preserve">
<path fill="#212121" d="M949.6,401.5c-3.1-4.5-6.8-7.6-22.2-8.8c-4-0.3-17.4-0.7-39.8-0.7c-58.9,0-98.9,17.9-119.4,53.2
	c5.6-35.5-28.9-53.3-103.9-53.3c-88,0-142.9,35.4-164.8,106.3c-8.1,26.3-9,47.9-2.6,64.8l-20.8,1.4c-16.2,1.2-37.6,2.3-50.6,2.3
	c-32.2,0-52.2-5.4-59.9-16.2c-6.9-9.7-6.2-27.7,1.8-54c13.4-43.5,46.7-63.1,99.8-63.1c27.6-0.1,54.4,2.9,54.4,2.9v0
	c3.7-0.2,5.3-4.1,4.9-7.3l-0.5-4.2l-1.9-14.6c-1.2-9.6-8.4-15.3-21.5-17.1c-11.9-0.8-20.8-1.3-33.9-1.3c-0.2,0-0.5,0-0.7,0
	c-69.5,0.2-117.9,23-145.3,68.4c10.1-45.6-22.1-68.4-96.5-68.4c-41.4,0-71,1.2-89,3.5c-13.8,1.7-22.2,7.4-25.2,17.1l-5.9,18.8
	c-1.1,3.4,0.6,5.1,5,5.1l0.1,0c3.3-0.4,15.9-1.6,37.4-3.4c28.4-2.3,49.6-3.4,63.4-3.4c40.9,0,58.2,10.3,51.8,30.7
	c-1.4,4.5-4.5,7.4-9.3,8.4c-38.7,6.4-69.5,11-92.2,13.8c-64,8.1-101,28.1-110.9,59.8c-13.7,43.6,20.6,65.5,102.6,65.5
	c40.9,0,75.3-2.4,103.1-7.1c16-2.7,24.1-6.8,27.3-17.1l15.3-48.6c-1.6,48.6,32.5,73.1,102.3,73.1c30.2,0,58.9-1,72.4-3.3
	c14.3-2.5,21.2-5.6,24.3-16.4l3.1-15.3c14.9,23.2,47.5,34.8,97.9,34.8c53.2,0,84.1-1.5,93-4.5c7.4-2.4,12-6.2,13.6-11.5
	c0.3-0.9,0.5-2,0.6-3l6.4-20.7c1.1-3.6-0.6-5.3-4.9-5.2l-34,1.6c-22.7,1.2-40.5,1.9-53.3,1.9c-24.2,0-40.7-1.6-49.8-4.9
	c-13.4-5.2-19.8-15.5-19.2-31l107.8-13.8c48.3-6.2,80.6-21,97-44.6l-36.5,127.2c-0.7,2.4-0.4,4.3,0.8,5.8c1.4,1.6,3.7,2.4,7.1,2.4
	h44.6c7.8,0,10.6-4,11.5-7.4l39.4-137.3c5.2-18.1,21.8-26.8,50.8-26.8c26.2,0,45.9,0.2,58.5,0.7c0.3,0,0.7,0,1,0
	c2.5,0,6.9-0.9,9.1-6.9l6.9-18.8C951.8,407.4,951.5,404.2,949.6,401.5z M230.7,566.6c-13.9,2.2-33.9,3.3-60.1,3.3
	c-45.3,0-65.2-9.1-59.4-27.4c4.1-13.1,16-21,35.7-23.7l103.1-13.8L230.7,566.6z M707.3,455.4c-4.3,14.1-24.5,23.7-60.5,28.9
	l-85.9,12.2l2.2-7c7.1-23.1,17.2-38.9,30.3-47.3c13.1-8.4,34.3-12.6,63.8-12.6C695.9,429.6,712.6,438.2,707.3,455.4z"/>
</svg>
