<?xml version="1.0" encoding="utf-8"?>
<!-- Generator: Adobe Illustrator 17.1.0, SVG Export Plug-In . SVG Version: 6.00 Build 0)  -->
<!DOCTYPE svg PUBLIC "-//W3C//DTD SVG 1.1//EN" "http://www.w3.org/Graphics/SVG/1.1/DTD/svg11.dtd">
<svg version="1.1" id="Layer_1" xmlns="http://www.w3.org/2000/svg" xmlns:xlink="http://www.w3.org/1999/xlink" x="0px" y="0px"
	 viewBox="0 0 1000 1000" enable-background="new 0 0 1000 1000" xml:space="preserve">
<g>
	<path fill-rule="evenodd" clip-rule="evenodd" fill="#212121" d="M32.1,659.2c0,0,536.9-132,934.7-39l1.1-4.4
		c0,0-347.1-102.5-929.2,22.5L32.1,659.2L32.1,659.2z"/>
	<path fill-rule="evenodd" clip-rule="evenodd" fill="#212121" d="M289.1,400.1v21.8c2-4.2,4.4-10.3,11.2-15.9
		c7.3-6.2,17.9-9.7,28.4-9.7c5.3,0,10.8,1.1,16.1,2.9c16.5,6.2,21.2,19.4,23.2,24.9c13-24,33.5-27.5,44.5-27.5
		c13.4,0,25.3,4.9,33.1,12.8c13.9,13.7,14.6,28.7,14.6,66.3V562h-41.4v-76.5c0-26-0.5-31.3-4.8-38.1c-4.6-7.5-11-9.2-17.2-9.2
		c-11.2,0-16.8,8.2-17.6,9.3c-4.6,7.9-4.6,21.2-4.6,34.4v80h-41.4v-81.5c0-17.6,0-25.4-4.2-32.6c-3.1-5.3-9.2-9.7-16.8-9.7
		c-3.7,0-7.3,0.9-10.6,2.9c-12.1,6.8-12.4,18.7-12.4,49.2V562h-41.2V400.1H289.1L289.1,400.1z"/>
	<polygon fill-rule="evenodd" clip-rule="evenodd" fill="#212121" points="624.5,400.1 666.6,400.1 624.5,562 585.9,562 
		561.5,452.7 537.3,562 498.4,562 456.1,400.1 498.4,400.1 520.5,501.4 543.2,400.1 579.8,400.1 602.1,501.4 624.5,400.1 	"/>
	<path fill-rule="evenodd" clip-rule="evenodd" fill="#212121" d="M753.4,479.2c0,14.6-2,28.7-10.8,39.4c-7.3,8.4-15.4,9-17.9,9
		c-8.1,0-17.4-4.9-23.1-19c-3.3-8.1-4.4-17.8-4.4-27.8c0-12.4,1.6-25.3,8.6-35.5c5.1-7.3,13-11.9,20.5-11.9c6.2,0,12.4,3.1,16.7,8.1
		C748.2,447.4,753.4,458.2,753.4,479.2L753.4,479.2L753.4,479.2z M755.4,562h40.5V399.8h-39.5v21.1c-7.3-15.7-20-24.7-36.1-24.7
		c-27.5,0-63.3,23.6-63.3,87.5c0,50.5,25.8,81.8,60.4,81.8c23.6,0,33.1-13.7,38.1-21.2V562L755.4,562z"/>
	<path fill-rule="evenodd" clip-rule="evenodd" fill="#212121" d="M891.2,400.1h42.1L887,560.7c-3.3,11.4-8.6,29.7-16.8,38.8
		c-7.5,8.1-16.5,11.9-50,11.9c-4.8,0-6.8-0.4-11-0.7v-35.9h11c3.8,0,13.2,0,17.4-4c3.5-2.7,6.2-9.7,6.2-16.3c0-3.5-1.6-9.7-3.1-13.7
		l-45-140.6h45L867,509.2L891.2,400.1L891.2,400.1z"/>
	<path fill-rule="evenodd" clip-rule="evenodd" fill="#212121" d="M155.3,389.3l22.1,85.3h-43.2L155.3,389.3L155.3,389.3
		L155.3,389.3z M129.1,340.8L59.7,562h50.9l13-47h65l13.4,47h51.1l-72.1-221.1H129.1L129.1,340.8z"/>
</g>
</svg>
