<?xml version="1.0" encoding="utf-8"?>
<!-- Generator: Adobe Illustrator 17.1.0, SVG Export Plug-In . SVG Version: 6.00 Build 0)  -->
<!DOCTYPE svg PUBLIC "-//W3C//DTD SVG 1.1//EN" "http://www.w3.org/Graphics/SVG/1.1/DTD/svg11.dtd">
<svg version="1.1" id="Layer_1" xmlns="http://www.w3.org/2000/svg" xmlns:xlink="http://www.w3.org/1999/xlink" x="0px" y="0px"
	 viewBox="0 0 1000 1000" enable-background="new 0 0 1000 1000" xml:space="preserve">
<g>
	<path fill-rule="evenodd" clip-rule="evenodd" fill="#212121" d="M791.1,759.1c0,0,0,0.6,0-112.8h-46.5c0,113.4,0,112.8,0,112.8
		H791.1L791.1,759.1z"/>
	<path fill-rule="evenodd" clip-rule="evenodd" fill="#212121" d="M544.6,712.2V648h-45.1v49.1c0,14.3-0.6,18.3-1.4,22
		c-3.1,10.3-14,14.8-25.1,14.8c-15.4,0-22.6-6-25.4-15.4c-0.9-3.1-1.1-6.6-1.4-10c-0.3-3.7,0-7.7,0-12V648h-45.7v64.5
		c0,14.6,4.9,25.4,12.8,32.8c13.7,13.4,36.8,17.4,58.3,17.4c26,0,46-3.7,60.3-17.7C539.2,737.9,544.6,728.5,544.6,712.2L544.6,712.2
		z"/>
	<path fill-rule="evenodd" clip-rule="evenodd" fill="#212121" d="M323,704.2c-1.4-0.3-4-0.6-6.9-0.6h-51.4c-2.6,0-5.4,0.3-6.9,0.6
		c0.9-0.9,2.6-2.6,4.3-4.9l23.1-38.3c3.1-5.1,4.6-8.6,5.1-10c0.6,1.4,2,4.9,5.1,10.3l23.7,38.6C320.5,701.7,322.2,703.4,323,704.2
		L323,704.2z M409.3,759.1L306.5,604.9h-57.7l15.1,18c0.3,0.3,0.9,0.6,1.4,0.8c-0.6,0.3-1.1,0.6-1.4,0.9l-89.7,134.5h52l14-23.1
		c0.6-1.1,0.9-2.3,0.9-2.9c0.6,0,2,0.6,3.4,0.6h92.8c1.4,0,2.6-0.3,3.1-0.6c0,0.6,0,1.4,0.6,2.3l14.6,23.7H409.3L409.3,759.1z"/>
	<path fill-rule="evenodd" clip-rule="evenodd" fill="#212121" d="M732,701.1c0-12.6-5.1-27.1-21.1-47.4l-38.6-48.8h-53.7l30.6,34.3
		c5.1,5.7,11.7,10.9,11.7,10.9c-7.4-4.3-16.8-6-24.3-6c-17.7,0-35.7,3.7-51.7,12.6c-17.1,9.4-28.6,25.1-28.6,46
		c0,16,7.1,28.3,16.3,37.7c20.6,20.6,58,22.6,71.7,22.6c20.3,0,52-4.6,70-20.8C724.8,732.2,732,718.8,732,701.1L732,701.1z
		 M687.4,702.5c0,11.7-7.7,20.6-17.4,25.4c-8,4.3-17.4,5.4-25.7,5.4c-8.3,0-18-1.7-26-5.7c-9.7-4.9-17.1-14.3-17.1-24.6
		c0-12.3,9.4-22,20.6-26.8c6.9-3.1,15.1-4.3,21.7-4.3c6.3,0,15.4,0.8,22.6,3.7C678.9,681.1,687.4,691.4,687.4,702.5L687.4,702.5z"/>
	<path fill-rule="evenodd" clip-rule="evenodd" fill="#212121" d="M776.3,237.2c-34.8,0-66.8,12-92.1,32c-25.3-20-57.3-32-92.1-32
		c-34.8,0-66.8,12-92.1,32c-25.3-20-57.3-32-92.1-32c-34.8,0-66.8,12-92.1,32c-25.3-20-57.3-32-92.1-32
		c-82,0-148.5,66.5-148.5,148.5c0,82,66.5,148.5,148.5,148.5c34.8,0,66.8-12,92.1-32c25.3,20,57.3,32,92.1,32
		c34.8,0,66.8-12,92.1-32c25.3,20,57.3,32,92.1,32c34.8,0,66.8-12,92.1-32c25.3,20,57.3,32,92.1,32c82,0,148.5-66.5,148.5-148.5
		C924.8,303.7,858.3,237.2,776.3,237.2L776.3,237.2z M291.5,478c-18.9,13.8-42.6,22.2-67.8,22.2c-63.3,0-114.5-51.2-114.5-114.5
		c0-63.3,51.2-114.5,114.5-114.5c25.2,0,48.9,8.4,67.8,22.2c-20.1,25.4-32.1,57.4-32.1,92.3C259.4,420.5,271.5,452.7,291.5,478
		L291.5,478z M315.8,453.8c-14.1-19-22.4-42.5-22.4-68c0-25.5,8.3-49,22.4-68c14.1,19.1,22.4,42.5,22.4,68
		C338.2,411.3,329.9,434.7,315.8,453.8L315.8,453.8z M475.7,478c-19,14-42.5,22.2-67.9,22.2c-25.4,0-48.7-8.2-67.7-22.2
		c20-25.3,32.1-57.5,32.1-92.3c0-34.9-12-66.9-32.1-92.3c19-14,42.3-22.2,67.7-22.2c25.4,0,48.9,8.2,67.9,22.2
		c-20.1,25.4-32.1,57.4-32.1,92.3C443.6,420.5,455.7,452.7,475.7,478L475.7,478z M500,453.8c-14.1-19-22.4-42.5-22.4-68
		c0-25.5,8.3-49,22.4-68c14.1,19.1,22.4,42.5,22.4,68C522.4,411.3,514.1,434.7,500,453.8L500,453.8z M659.9,478
		c-19,14-42.5,22.2-67.9,22.2c-25.4,0-48.7-8.2-67.7-22.2c20-25.3,32.1-57.5,32.1-92.3c0-34.9-12-66.9-32.1-92.3
		c19-14,42.3-22.2,67.7-22.2c25.4,0,48.9,8.2,67.9,22.2c-20.1,25.4-32.1,57.4-32.1,92.3C627.8,420.5,639.9,452.7,659.9,478
		L659.9,478z M684.2,453.8c-14.1-19-22.4-42.5-22.4-68c0-25.5,8.3-49,22.4-68c14.1,19.1,22.4,42.5,22.4,68
		C706.6,411.3,698.3,434.7,684.2,453.8L684.2,453.8z M776.3,500.3c-25.2,0-48.9-8.4-67.8-22.2c20-25.3,32.1-57.5,32.1-92.3
		c0-34.9-12-66.9-32.1-92.3c18.9-13.8,42.6-22.2,67.8-22.2c63.3,0,114.5,51.2,114.5,114.5C890.8,449,839.6,500.3,776.3,500.3
		L776.3,500.3z"/>
</g>
</svg>
