<?xml version="1.0" encoding="utf-8"?>
<!-- Generator: Adobe Illustrator 17.1.0, SVG Export Plug-In . SVG Version: 6.00 Build 0)  -->
<!DOCTYPE svg PUBLIC "-//W3C//DTD SVG 1.1//EN" "http://www.w3.org/Graphics/SVG/1.1/DTD/svg11.dtd">
<svg version="1.1" id="Layer_1" xmlns="http://www.w3.org/2000/svg" xmlns:xlink="http://www.w3.org/1999/xlink" x="0px" y="0px"
	 viewBox="0 0 1000 1000" enable-background="new 0 0 1000 1000" xml:space="preserve">
<g>
	<path fill-rule="evenodd" clip-rule="evenodd" fill="#212121" d="M621.2,354.6c-7.3-17.7-18-33.7-31.9-47.6
		c-13.9-13.6-29.9-24.3-47.4-31.9c-18.4-8-37.8-11.8-58.3-11.8c-20.5,0-39.8,3.8-58.2,11.8c-17.7,7.6-33.7,18.4-47.6,31.9
		c-13.9,13.9-24.5,29.9-32.3,47.6c-7.5,18.6-11.3,38-11.3,58.2c0,20.5,3.8,40,11.3,58.2c7.8,18.1,18.4,34.2,32.3,47.6
		c13.9,13.9,29.9,24.7,47.6,32.3c18.4,8,37.7,11.8,58.2,11.8c20.5,0,39.9-3.8,58.3-11.8c17.5-7.6,33.5-18.4,47.4-32.3
		c13.9-13.4,24.7-29.5,31.9-47.6c8-18.2,11.8-37.7,11.8-58.2C633,392.7,629.2,373.2,621.2,354.6z M602.5,463.2
		c-6.6,15.5-15.6,29-27.8,41.2c-11.8,11.8-25.2,20.8-40.8,27.5c-16,6.9-32.7,10.4-50.4,10.4c-17.7,0-34.2-3.5-50.2-10.4
		c-15.6-6.6-29.2-15.6-41-27.5c-12.2-12.1-21.2-25.7-27.8-41.2c-6.4-16-9.9-32.6-9.9-50.4c0-17.3,3.5-34,9.9-50
		c6.6-15.5,15.6-29,27.8-41.2c11.8-11.8,25.4-20.8,41-27.4c16-6.9,32.5-10.4,50.2-10.4c17.7,0,34.4,3.5,50.4,10.4
		c15.6,6.6,29,15.6,40.8,27.4c12.1,12.2,21.2,25.7,27.8,41.2c6.6,16,10.1,32.6,10.1,50C612.5,430.5,609.1,447.2,602.5,463.2z"/>
	<path fill-rule="evenodd" clip-rule="evenodd" fill="#212121" d="M596.6,402.7c-1-12.8-4.2-24.3-8.7-34l-9.7-18.6l-11.5-15.3
		l-5.9-7.6l-1.4-3.5l-0.7-2.1l-6.2-1c-3.7,1-8.9,5.9-15.1,14.9c-8.7,12.5-16,21.5-22.6,27.3c-4.5,3.8-9.7,6.2-14.9,6.9
		c-1.4,0-2.5-0.3-3.5-1c-1.7-1-2.8-4.2-2.8-9l9.4-10.6l2.4-8.7c0-1.7-1.7-2.4-4.9-2.1l-7.6,1.4l-5.2,1.7l-1.7-2.1l-4.2-3.8
		c-3.1-2.4-5.6-2.1-6.6,1.4l-0.7,6.9c-10.1,4.9-14.9,8.7-14.9,11.5c0,2.1,1,3.8,2.8,4.7l10.4,3.5l-0.7,5.6l-4.2,0.3
		c-5.9-0.7-11.1-2.8-15.1-6.6c-5.9-5-13.5-14.1-22.6-27.3c-4.5-6.6-9.7-11.8-15.3-14.9l-2.4-1l-2.9,0.3L408,322v2.8l-2.3,3.1
		l-5.3,6.9l-11.5,15.3l-9.8,18.6c-4.5,9.7-7.3,21.2-8.4,34c-1,12.5-0.3,24.3,2.1,35.8c4.2,18.1,11.8,33.7,22.9,47.1l5.2,5.9l1.7,1.7
		l2.1-0.2c0.7-1.2,0-2.2-1.7-4l-3.5-4.5c-4.2-5.9-7.6-12.3-10.4-19.1c-6.6-16.8-7.3-26.2-2.8-28c3.1-1.4,6.9,1.7,11.5,9l3.1,5.6
		c1,3.1,2.4,4.2,3.5,3.5c1-0.3,1-1.4,0.7-2.4l-2.1-3.1l-2.8-6.9l-3.8-13.2c-2.1-11.1-1-17.7,2.8-20.2c3.8-2.4,8.7-0.3,14.3,6.6
		l4.5,6.9l3.5,9c0.3,2.4,1,3.5,2.1,3.5c1.7-0.3,1.7-1.7,0.7-4.2l-0.7-6.9l0.7-6.6c1-2.4,2.4-4.2,4.2-4.9c3.8-1,7.3,0.7,10.4,5.2
		c3.8,5.2,5.6,12.1,5.2,20.8l-2.4,3.5c-4.9,2.1-7.3,4.5-7,7.3c0.4,3.5,1.4,6.2,3.5,8c10.1-4.9,17.5-5.6,22.7-2.4
		c4.2,2.4,8.3,10.2,12.5,23.1c4.2,12.9,7,26.1,8,40l0.7,9c-0.3,1.7,0.3,2.4,1.4,2.4c1.4,0,2.1-0.7,1.7-2.4l0.7-9
		c1-14.3,3.8-27.3,7.6-39.4c3.8-12.7,8-20.2,12.2-23.3c4.9-3.5,12.5-2.8,22.6,1.7c2.8-1.4,4.2-3.8,4.5-7.6c0-3.1-2.4-5.6-7.3-7.3
		c-1.4-0.7-2.1-2.1-2.4-3.8c0-8.7,1.7-15.3,5.2-20.5c3.1-4.9,6.6-6.6,10.4-5.6c1.7,0.7,3.1,2.4,4,4.9l1.2,6.9l-1.2,6.9
		c-0.9,2.4-0.5,3.5,0.9,3.8c0.9,0.3,1.7-0.7,2.1-3.1l3.8-9.4l4.4-6.6c5.6-7,10.1-9.4,13.9-7c3.8,2.4,4.9,9.4,3.1,20.5L567,443
		l-3.1,6.6l-1.7,3.1c-0.4,1.4-0.4,2.1,0.3,2.4c1,0.7,2.5-0.3,3.5-3.1l3.5-5.6c4.5-7.7,8.3-10.8,11.5-9.4c4.5,2.1,3.5,11.5-3.1,28
		c-2.4,7.1-5.9,13.5-10.1,19.5l-3.8,4.5c-1.7,1.4-2.1,2.4-1.4,3.5l1.8,0.5l1.7-1.7l5.2-6.1c11.5-13.6,19.1-29,22.9-46.7
		C596.6,427.1,597.6,415.2,596.6,402.7z M493.2,347l2.1-0.3l-0.7,2.5l-2.1,2.4l-0.7-3.5L493.2,347z M478.6,352.2l2.1-3.1l5.2,1
		l1,2.8c-0.3,0.7-1,1-2.8,1l-4.2-0.3C479,353.3,478.3,352.9,478.6,352.2z M577.5,430.2l-0.3-0.3c3.1-10.4,4.5-21.9,3.5-34.7
		c-1-9-3.1-18.4-6.9-28.5l-10.4-21.4c1.8,8.4,1.8,18.7,0.7,30.9c-1.7,14.9-5.2,25.9-11.1,36.9h-0.3c4.2-14,6.6-24.4,6.9-38.7
		c0.3-12.2-0.3-22.6-2.1-31.3l-3.1-8.4l-2.8-2.5l-3,3.4l-4,6.9c-2.2,5.9-4,13.9-5.7,23.1l-4.2,18.4c-2.1,5.9-4.5,10.1-7.3,12.5
		c-1.8,1.7-3.8,2.4-5.9,2.1c-2.1-0.3-3.8-1-5.6-2.8c-1.7-1.7-3.8-4.9-5.9-9.7l1.4,9.4c0,6.6-1.7,13.5-4.9,20.2l-4.2,8.3l4.5-2.1
		l3.8-1.4c2.4-0.3,4.5,1.4,5.9,5.2l2.4,17.7c0,1.4,0.7,2.4,2.1,2.8c5.9,1.4,8,3.5,6.6,5.9l-12.9-2.8c0.3-2.8-0.7-5.6-3.1-8.3
		c-3.1-3.1-6.2-3.8-10.1-2.5c-4.9,2.1-9,8.7-12.2,20.2c-2.8,9.2-4.5,20-4.9,32.1l-1,18.4l-0.7-18.4c-0.7-12.2-2.4-22.9-5.2-32.1
		c-3.1-11.5-7.3-18.1-12.2-20.2c-3.8-1.4-6.9-0.7-9.7,2.5c-2.3,2.8-3.7,5.6-3.3,8.3l-12.8,3.1c-1-3.1,1.4-5.2,6.9-6.2
		c1-0.3,1.7-1.4,2.1-2.8c0-7.3,0.7-13.2,2.4-17.7c1-3.8,3.1-5.6,5.7-5.2l3.1,0.7l6.2,3.1l-6.2-11.5c-2.1-4.9-3.5-9.4-3.8-13.2
		c-0.3-3.8,0.3-8,1.4-13.2c-1.4,3.8-3.7,7-7.1,9.4c-3.8,2.4-6.9,3.1-10.1,1.7c-3.1-1.4-5.9-5.2-7.6-11.5l-4.2-20.5
		c-1-7.8-2.8-15.8-5.9-23.1l-3.5-6.9l-3.5-3.5l-2.8,2.4l-2.8,8.3c-2.1,8.7-2.8,19.4-2.4,31.5c0.7,14.3,3.1,24.7,6.9,38.7h-0.3
		c-5.9-11-9.4-22-11.1-36.9c-1-12.1-1-22.3,0.7-30.6l-10.4,21.3c-3.8,10.1-5.9,19.4-6.6,28.4c-1,12.8,0,24.3,3.1,34.7l-0.3,0.4
		c-4.9-8.7-6.9-20.5-6.6-36.1c0.3-13.6,3.8-27.4,11.1-41.5l10.1-15.3l5.9-8l1-2.4V325h3.6l4.2,4.4c5.9,6.2,11.1,15.4,14.9,26.9
		l4.2,13.4l3.8,6.6c1.4,1.7,3.5,3.2,5.9,3.5c3.1,0.3,6.6-0.3,9.9-2.4c4.5-2.4,9.4-4.2,14.6-4.5l2.8-0.3l1.8-1l0.3-4.9l1,1.7l0.7,4.9
		l-1.7,1.4l-5.6,2.1c-3.1,1.7-5.6,4.5-6.9,7.6c-2.4,6.3-2.4,13.9-0.7,22.9l4.2,12.2l4.2,10.7l-9.4-4.2h-5.6c-2.4,0-3.7,6.6-4.7,15.3
		c1.7-4.2,4.7-6.6,8.5-7.6c3.8-1,7.6-0.4,10.8,2.1c3.5,3.1,6.6,10.1,9,21.2c1.7,8.5,2.8,16.2,2.8,22.8c0.3-13.5,2.8-26.2,7.6-38.7
		l6.6-15.6l5.6-17c4.9-17,2.4-28.5-7.3-34.4c-1.7-1-0.7-1,2.8-0.3l11.1,3.8l10.1,2.1c2.4-0.3,4.2-1.4,5.6-3.1l4.2-6.9l4.9-14.1
		c3.8-11.5,8.7-20.2,13.9-25.7l4.4-4.2c1-1,2.1-1,2.4,0l0.3,1.4l1,2.4l6.9,9l9.7,15.3c6.9,14.1,10.8,27.6,11.1,40.5
		C584.7,409.7,582.3,421.9,577.5,430.2z"/>
	<path fill-rule="evenodd" clip-rule="evenodd" fill="#212121" d="M904.1,720.4c-1.7-1.7-4.2-2.8-6.6-2.8c-2.8,0-5.2,1-6.9,2.8
		c-1.7,1.9-2.8,4.2-2.8,6.9c0,2.4,1,4.9,2.8,6.6c2.1,1.7,4.5,2.8,6.9,2.8c2.4,0,4.9-1,6.6-2.8c1.7-1.7,2.8-4.2,2.8-6.6
		C906.9,724.6,905.9,722.3,904.1,720.4L904.1,720.4z M897.5,719c2.1,0,3.8,0.7,5.6,2.4c1.7,1.7,2.4,3.5,2.4,5.9
		c0,2.4-0.7,4.2-2.4,5.5c-1.7,1.7-3.5,2.4-5.6,2.4c-2.4,0-4.2-0.7-5.9-2.4c-1.7-1.7-2.4-3.5-2.4-5.5c0-2.4,0.7-4.2,2.4-5.9
		C893.4,719.7,895.1,719,897.5,719L897.5,719z"/>
	<path fill-rule="evenodd" clip-rule="evenodd" fill="#212121" d="M901.7,724.9l-1.7-2.4l-2.8-0.7h-3.8v10.8h2.1v-4.2h1.4l2.1,0.3
		l1,2.4v1v0.4h1.7v-0.4v-0.3v-1.7l-0.7-1.7l-1.7-0.7l1.4-0.7L901.7,724.9L901.7,724.9z M896.8,723.2l2.4,0.4l0.7,1.7l-1,1.4
		l-1.7,0.3h-1.7v-3.8H896.8L896.8,723.2z"/>
	<path fill-rule="evenodd" clip-rule="evenodd" fill="#212121" d="M432.3,647.3c-0.3-19.8-0.3-32.1,0.3-38.2l-1-0.3l-4.5,3l-7.6-0.9
		c-12.5-4.9-25.4-6.6-38.2-5.6c-8,0.4-15.6,2.1-22.8,5.6c-7.3,3.1-13.9,7.8-20,13.5c-12.3,12.9-18.2,29.5-17.9,49.8
		c0.3,19.8,6.6,35.4,19.5,46.5c12.2,10.8,27.3,15.6,45.7,14.9c12.9-0.4,24-3.8,33.3-10.1c7.3-4.5,12.5-10.4,16-17l2.8-5.5l-1.7-1
		c-5.9,8.7-13.2,15.6-21.9,20.3c-8,4-17,5.7-26.7,5c-11.5-0.4-21.2-5.6-28.8-14.9c-8-10.1-12.3-23.3-12.7-39.1
		c-0.5-17.4,2.8-31.6,9.9-43.1c7.6-12.2,18.4-18.4,32-18.6c10.8-0.5,19.8,2.6,27.8,9.2c8,6.9,12.9,15.6,14.6,26.4H432.3L432.3,647.3
		z"/>
	<path fill-rule="evenodd" clip-rule="evenodd" fill="#212121" d="M186.7,634.8c-1.4-8.3-5.6-14.9-12.8-19.6
		c-7.5-5.7-18.1-8.2-30.7-7.8l-49.7,0.3v2.3l3.1,0.5l4.2,1.4l5.6,3.5c1.7,1.7,2.4,3.5,2.4,5.9v97.1c0,3.5-2.8,6.6-8,9.7l-7.6,2.1
		v2.1l31.1-0.3l32.5,0.7c12.7-0.4,22.8-3.5,30.4-8.5c8-6.1,12.5-13.7,12.9-23.4c0.3-10.1-3.1-18.8-11.1-25.4
		c-7.3-6.1-15.6-9.2-25.2-9.6c6.8-1,12.3-3.8,16.8-8.3C186,651.4,188.1,644.1,186.7,634.8L186.7,634.8z M155.6,619.8
		c5.2,4.5,8,10.8,8,18.4c0,8.7-2.1,15.3-6.3,19.1c-5.2,4.5-13.5,5.9-25.7,4.9v-46.9c2.1-1,4.5-1.4,7.3-1.7
		C145.5,613.6,151.1,615.7,155.6,619.8L155.6,619.8z M174.9,698.2c0.3,5.2-0.3,9.4-2.1,13.2c-4.2,9.4-12.7,14.6-26.2,14.9
		c-10.1,0-14.9-3.8-14.9-11.8v-44.3l10.8-1c12.8,1,22.2,5.7,28,14.8C172.8,687.7,174.5,692.6,174.9,698.2L174.9,698.2z"/>
	<path fill-rule="evenodd" clip-rule="evenodd" fill="#212121" d="M873.2,609.4v-1.7h-52.6v1.7l7.6,2.4c4.9,2.4,7.3,5.9,7.3,10.4v96
		c0,4-2.4,6.9-7.3,9.7l-7.6,2.4v1.7h52.6v-1.7l-7.3-2.4l-4.9-3.5c-1.7-1.7-2.8-3.8-2.8-6.3v-96.4c0-3.8,2.4-7.3,7.6-10.1
		C868.7,610.8,871.1,609.9,873.2,609.4L873.2,609.4z"/>
	<path fill-rule="evenodd" clip-rule="evenodd" fill="#212121" d="M621.6,608.2l-16.3-0.5l-41.7,0.5v1.2l7.3,2.4l4.9,3.5
		c1.7,1.7,2.8,3.5,2.8,5.9v97.4c0,2.4-1,4.2-2.8,5.9l-4.9,3.1l-7.3,2.8v1.7h50.7v-1.7l-6.6-2.4l-4.5-3.1c-1.4-1.7-2.3-3.5-2.3-5.9
		v-47.8c0-1,0.9-1.7,1.7-1.7c3.3,0,7.5,3.1,12.7,8.9l10.4,15.3l9.7,17.4l10.4,14.6c4,4.2,8.2,6.3,12.3,6.6c9,1,18.4,1,27.8,0.4v-2.1
		c-4.9-0.7-9-2.4-12.2-4.9l-6.9-8.3l-9.4-14.9l-10.4-16.7c-6.8-10.8-14.1-16.8-21.7-18.6c9.4-0.3,17-3.1,22.7-8.3
		c6.6-5.6,9.7-12.5,8.7-20.8c-1-8.7-5.2-15.6-12.3-21C637.9,611.7,630.2,608.7,621.6,608.2L621.6,608.2z M609.1,613.6
		c6.6,0.3,12.2,2.4,16.7,6.8c4.5,4.3,6.9,10.2,7.3,17.9c0.3,6.9-0.4,12.2-2.4,16c-2.1,3.5-5.9,5.9-11.5,7.6l-9.7,1l-8-0.7v-47.1
		L609.1,613.6L609.1,613.6z"/>
	<path fill-rule="evenodd" clip-rule="evenodd" fill="#212121" d="M797.3,626.1c-12.5-11.5-29.2-17.4-49.7-18.4l-33.2,0.5l-26.7-0.5
		v1.7l7.3,2.4l4.9,3.3c1.7,1.7,2.4,3.7,2.4,6.1v97.4l-2.4,6.3L695,728l-7.3,2.1v2.1l59.2,0.7c22.2,0.4,39.9-5.9,52.8-19.4
		c5.2-5.9,9.4-12.5,12.5-20.1c2.4-6.9,3.8-14.1,3.8-21.7C816.1,652.8,809.8,637.5,797.3,626.1L797.3,626.1z M749.4,615.1
		c12.2,2.3,21.5,8.5,28.8,17.9c7.3,9.7,10.8,21.5,11.1,35.8c0.4,14.4-2.1,26.6-7.3,36c-5.6,10.8-14.2,17.7-26.4,20.5l-9.4,1
		l-9.2-0.4c-3.8-1-6.6-1.9-7.6-3.1c-2.4-2.1-3.8-5.6-4.2-10.8v-96.7C731.8,613.4,740.2,613.4,749.4,615.1L749.4,615.1z"/>
	<path fill-rule="evenodd" clip-rule="evenodd" fill="#212121" d="M271.6,605.9l-18.9,0.5l-38.5,109.8c-1.7,5.2-4.9,8.7-9,11.1
		l-9.7,3.1v1.7h41.7v-1.7l-8.3-3.1c-2.4-1.7-3.8-3.8-3.8-6.9l2.4-10.4l10.8-31.6H273l10.8,30.2l2.8,10.4c0.4,3.5-0.7,6.3-3.5,8
		l-8,3.1v2.1h54.2v-2.1l-8.3-2.4c-3.8-1.7-6.8-4.9-8.7-9.7L271.6,605.9L271.6,605.9z M270.6,669.5h-29.7l14.9-42.7L270.6,669.5
		L270.6,669.5z"/>
	<path fill-rule="evenodd" clip-rule="evenodd" fill="#212121" d="M503.3,606.5h-18.8l-38.7,109.8c-1.7,5.2-4.5,8.7-9,11.1l-9.4,2.8
		v2.1h41.2v-1.7l-8-3.1c-2.8-1.7-4.2-3.8-3.8-6.9l2.1-10.4l10.8-31.6H505l13.5,40.6c0.4,3.5-1,6.3-3.5,8c-1.7,1.4-4.5,2.4-8,3.1v2.1
		h53.7v-2.1l-8-2.4c-3.6-1.7-6.6-4.9-8.5-9.7L503.3,606.5L503.3,606.5z M502.6,669.5h-29.9l14.9-42.7L502.6,669.5L502.6,669.5z"/>
</g>
</svg>
