<?xml version="1.0" encoding="utf-8"?>
<!-- Generator: Adobe Illustrator 17.1.0, SVG Export Plug-In . SVG Version: 6.00 Build 0)  -->
<!DOCTYPE svg PUBLIC "-//W3C//DTD SVG 1.1//EN" "http://www.w3.org/Graphics/SVG/1.1/DTD/svg11.dtd">
<svg version="1.1" id="Layer_1" xmlns="http://www.w3.org/2000/svg" xmlns:xlink="http://www.w3.org/1999/xlink" x="0px" y="0px"
	 viewBox="0 0 1000 1000" enable-background="new 0 0 1000 1000" xml:space="preserve">
<g>
	<path fill="#212121" d="M500,178.7c-177.4,0-321.3,143.8-321.3,321.3S322.6,821.3,500,821.3c177.4,0,321.3-143.8,321.3-321.3
		S677.4,178.7,500,178.7 M800.4,500c0,165.9-134.5,300.4-300.4,300.4c-165.9,0-300.4-134.5-300.4-300.4S334.1,199.6,500,199.6
		C665.9,199.6,800.4,334.1,800.4,500"/>
	<path fill="#212121" d="M500,309.5V320c99.3,0,180.1,80.8,180.1,180h10.5C690.5,394.8,605.2,309.5,500,309.5 M500,680.1
		c-99.3,0-180.1-80.8-180.1-180.1h-10.5c0,105.2,85.3,190.5,190.5,190.5"/>
	<path fill="#212121" d="M655.7,363.7c4.4,4.7,10.6,12.2,14.2,16.8l65-41.3c-3.2-4.2-8.4-10.7-12.3-15.2l-41.2,27.2l-2.8,2.4
		l2.1-3.1l18.2-36.3l-12.8-12.9l-36.3,18.2l-3.1,2.1l2.4-2.8l27.3-41.2c-4.8-4.1-9.4-7.8-15.3-12.4l-41.3,65c5.2,4,12.1,9.9,16.5,14
		l38.9-20.2l2.5-1.8l-1.8,2.5L655.7,363.7z"/>
	<path fill="#212121" d="M508.1,281.3l17.8-39.8l1.1-3.5l-0.3,3.7l1.9,53.2c6.2,0.6,12.7,1.5,19,2.5l-2.9-78.8
		c-8.9-1-17.7-1.7-26.6-2L500.6,260l-0.6,3.2l-0.6-3.2l-17.5-43.5c-8.9,0.4-17.7,1.1-26.6,2l-2.9,78.8c6.4-1,12.8-1.9,19-2.5
		l1.9-53.2L473,238l1.1,3.5l17.8,39.8H508.1z"/>
	<path fill="#212121" d="M364.3,344.1c10.3-10.8,16.1-23.3,5.8-35.3c-5.6-6.5-15-7.9-22.8-4.7l-0.8,0.3l0.2-0.7
		c1.2-3.1,1.9-12.9-6.5-19.7c-4.1-3.3-9.2-4.5-14.4-4c-9.6,1-17.1,7.6-37.3,30.1c-6.1,6.8-15,17.5-20.3,24.5
		c0,0,55.5,52.7,55.5,52.7C342.3,367,349.8,359.4,364.3,344.1 M291.9,331.3c11.2-13.7,23-26.1,28.5-31c1.7-1.6,3.5-3.1,5.8-3.7
		c3.6-1,7.4,1.6,8.2,5.3c0.9,3.7-1.5,7.3-4.1,10.3c-5.9,6.7-27.6,29.3-27.6,29.3L291.9,331.3z M313.6,351.9c0,0,21.1-22.3,28-29.5
		c2.7-2.8,4.5-4.5,6.4-5.5c2.4-1.2,5.1-1.4,7.5,0.1c2.3,1.6,3.4,4.3,2.8,6.9c-0.7,3.2-3.3,6.2-5.5,8.6c-2.9,3.1-28,29.9-28,29.9
		L313.6,351.9z"/>
	<path fill="#212121" d="M500,309.5V500H309.5C309.5,394.7,394.7,309.5,500,309.5"/>
	<path fill="#212121" d="M690.5,500c0,105.3-85.2,190.5-190.5,190.5V500H690.5z"/>
</g>
</svg>
