<?xml version="1.0" encoding="utf-8"?>
<!-- Generator: Adobe Illustrator 17.1.0, SVG Export Plug-In . SVG Version: 6.00 Build 0)  -->
<!DOCTYPE svg PUBLIC "-//W3C//DTD SVG 1.1//EN" "http://www.w3.org/Graphics/SVG/1.1/DTD/svg11.dtd">
<svg version="1.1" id="Layer_1" xmlns="http://www.w3.org/2000/svg" xmlns:xlink="http://www.w3.org/1999/xlink" x="0px" y="0px"
	 viewBox="0 0 1000 1000" enable-background="new 0 0 1000 1000" xml:space="preserve">
<g>
	<path fill-rule="evenodd" clip-rule="evenodd" fill="#212121" d="M635.4,461.6c11.8,12.3,30.3,13.2,30.3,13.2l17.6,1.2
		c13,0.9,15.7,7.2,15.7,7.2c11.3,19.8,39.4,30.5,39.4,30.5c-17.9-10.3-30.9-33.2-30.9-33.2c-8.5-12.5-29.1-12.5-29.1-12.5h-12.1
		C650.6,467.8,635.4,461.6,635.4,461.6L635.4,461.6z"/>
	<path fill-rule="evenodd" clip-rule="evenodd" fill="#212121" d="M765.1,521c-9.1-4.2-20.7-5.1-20.7-5.1
		c11.1,3.9,14.9,7.2,14.9,7.2c8.4,5.1,2.7,14,2.7,14c-7.1,12.5-34.9,6.3-34.9,6.3c29.6,19.7,42,4.9,42,4.9
		c7.6-9.1,5.8-13.6,3.7-19.3c0,0,26.9,8.7,54.7-17C827.5,512,797.7,535.9,765.1,521L765.1,521z"/>
	<path fill-rule="evenodd" clip-rule="evenodd" fill="#212121" d="M258.2,310.6c0,0-17.5,2.1-25.8,1.9c0,0-1.8,0.3-1.8,1.5
		c0,0,0.6,2.1,4.3,2.1C234.9,316.2,250.4,315.7,258.2,310.6L258.2,310.6z"/>
	<path fill-rule="evenodd" clip-rule="evenodd" fill="#212121" d="M440.3,438.6c0,0,23.6,2,62.4,0.2c9.6-0.4,14.3,1,14.3,1
		c17.4,2.6,20.2,10.8,20.2,10.8s30.9,63.6,91.8,62.1l28.8,0.2c26,0,60.7,25.5,60.7,25.5c-7.2-5.4-21.8-19.4-21.8-19.4
		c-18.5-16.4-48.4-16.6-48.4-16.6l-30.3-0.2c-57.6-0.5-72.7-52.5-72.7-52.5c-7.5-16.2-24.6-15.2-24.6-15.2c-1.3,0-2.6-0.1-3.9,0
		c-56.7,2.8-75.3-1.7-75.3-1.7c-11.5-3.2-24.8-8-37.4-14.9c0,0,2.7-12.8-2.7-23.6c0,0,20.9,8.4,40,3.9c0,0-30.8-7.8-52.6-23.3
		c0,0,10.5,30.2,1.8,41.5c0,0-5.7,20.9-57.6,3.9c0,0-21.5-8.4-38.2-8.4c0,0-13.4,0.6-13.4,7.5c0,0,0,3.3,3.3,4.8
		c0,0,3.9,2.7,1.5,8.7c0,0,5.4-3.9,3.9-9.6c0,0-0.6-3,2.1-3.6c0,0,7.2-3,27.5,4.5c0,0,32.9,14.9,51.7,14.9c0,0,20.3-1.2,27.8-10.2
		C399,428.9,416.2,435.9,440.3,438.6L440.3,438.6z"/>
	<path fill-rule="evenodd" clip-rule="evenodd" fill="#212121" d="M205.8,386.3c6.7,0.2,12.3-6.2,12.3-6.2
		c14.5-15.6,34.9-16.8,34.9-16.8c26.3-1.8,58.4,23.7,58.4,23.7C288.8,357,265,354.9,265,354.9c-5.9-1-8.3-7.2-8.3-7.2
		c-7.6-14-16.2-14.7-16.2-14.7c4.3,5.8,3.8,13.8,3.8,13.8c0,14.7-21.9,16.8-21.9,16.8c-8.7,17.2-16.1,16.2-16.1,16.2
		c-3.9,0-4.9-2.2-4.9-2.2c-0.9-1.3,0.6-2.5,0.6-2.5c2.4-1.5,4.6-3.4,4.6-3.4c14.9-11.5,15.1-24.5,15.1-24.5
		c-1.9-15.1-14.6-15.4-14.6-15.4c-5.8,0-8.4,3.6-8.4,3.6c-2.2,2.7-8.1,13.1-8.1,13.1c-4.3,7.2-8.2,6.1-8.2,6.1
		c-4.8,0.3-8.4-4.2-8.4-4.2c-0.2-0.2-0.3-0.4-0.5-0.5c-1.8-2.3-0.4-4.8-0.4-4.8c5.7-9.1,17.6-11.4,17.6-11.4
		c0.4-0.1,0.8-0.2,1.2-0.4c0,0,1.1-0.3,2.2-0.6l-0.1-0.1c15.5-5.4,16.8-13.6,16.8-13.6c-5.2-3-10.2-2.8-10.2-2.8
		c-9.4,0.6-12.5,9.9-12.5,9.9l-2.2-2.4c0,0-1-1.2,0.6-2.7c0,0,7.1-8.7,32.9-12.6c0,0,21.2-3.6,48.7-0.1c0,0-17,17.8-37.5,10.3
		c0,0-0.3,6.6,17.6,9.9c0,0,18.8,1.9,42.6,24.6c0,0-6.3-13.7-26.6-29.3c0,0-1.6-1-0.2-2.5c0,0,8.8-10.2,20.6-10
		c0,0,61.1,3.1,95.4,39c0,0-1.2-6-6.4-14.6c0,0-1-1-0.5-1.8c0,0,0.5-1.5,6.4-0.3c0,0,21.8,3.6,72.4,22.1l54.8,19.6
		c0,0,19.1,7,29.7,11.8c0,0-21.4-0.7-32.7,5.1c0,0-0.5,0.3-0.2,0.7c0,0,0.1,0.4,1.1,0.2c0,0,18-4.9,35.3,2.7c0,0,17.8,7.2,31.8,18.4
		c0,0,9.5,8.3,15.6,15c0,0,14.1,13.2,30.5,22.6c0,0-13.2-12.5-24.2-24.2c0,0-15.7-18.8-22.9-25.1c0,0,54.1,25.4,102.8,52.9
		c8.7,4.9,37,21.3,37,21.3c27.4,17,54.2,27.8,54.2,27.8c24.5,11,44.8-0.6,44.8-0.6l1-0.4c13.1-6.8,16.1-4.7,16.1-4.7
		c6.5,2.5,4.6,9.2,4.6,9.2c5.7-5.8,5.2-9,5.2-9c-0.2-10-11.1-9.2-11.1-9.2c-2.8,0.3-12.2,5.6-18.2,9l-1.8,1.1
		c-15.9,8.2-37.9,0.6-37.9,0.6c-29.3-11.6-54.8-27.5-54.8-27.5s-50.2-29.8-93.4-51.5c0,0-54-28-126.3-59.4c0,0-138-63.8-239.7-63.8
		c0,0-52.7-0.7-70.6,19.6c0,0-2,3.1-1.6,5.8c0,0,0.2,0.9-0.4,1.5c0,0-7.8,5.2-14.2,12.5c0,0-3.8,3.7-0.7,8.7c0,0,2.2,3.6,4.3,6.3
		l0,0c0.9,1.3,6.3,7.9,14.2,7.3c0,0,2.2-0.1,3.4,0.6c0,0,2,1.8,4.5,2.7h3.7c0,0,0.8-0.1,0.9-0.8c0,0-0.2-2-0.7-3.4
		c0,0-2.1-2.8-1.2-6.2c0,0,0.9-5.6,4.4-9.6c0,0,3.8-3.6,8.3-0.3c0,0,8.5,7.4,4.1,16.2c0,0-3.6,6.7-7.5,6.7c0,0-1.9,0.6-3.9-1.3
		l-2.6-0.3c0,0-0.8,0-0.8,0.7l0.1,1.9c0,0,0,1.1,0.6,1.7c0,0,1,1.2-0.1,2.8c0,0-2.5,2.2-1.2,5.5C196,376.9,198.2,386.3,205.8,386.3
		L205.8,386.3z M202.9,321.5c0,0-3.7,5.8-10.5,5.1C192.5,326.6,194.1,319.4,202.9,321.5L202.9,321.5z M182.9,328.3
		c2.6-1,2.9,0.5,2.9,0.5c0.1,1.2-1.3,1.7-1.3,1.7c-7.1,4.3-12.9,10.9-12.9,10.9c-1,1.1-1.7,0.6-1.7,0.6c-1.2-1.1,0-2.6,0-2.6
		C175.4,333.2,182.9,328.3,182.9,328.3L182.9,328.3z"/>
	<path fill-rule="evenodd" clip-rule="evenodd" fill="#212121" d="M321.1,356.9c-14.3,20.3-3,34.6-3,34.6
		c-38.5-1.2-49.6,9.6-49.6,9.6c-18.8,14.6-11.9,31.7-11.9,31.7c10.8,17,23.3,5.1,23.3,5.1c-17.9,3.6-17.6-12.2-17.6-12.2
		c3.9-27.5,39.7-26.3,39.7-26.3c30.8,0,78.6,8.7,78.6,8.7c-36.1-8.4-47.2-17.3-47.2-17.3C318.1,381.4,321.1,356.9,321.1,356.9
		L321.1,356.9z"/>
	<path fill-rule="evenodd" clip-rule="evenodd" fill="#212121" d="M605.6,651.6c1.2-5,1.8-10.6,1.8-20.4v-52.6h-11.6v56.6
		c0,6.8-0.6,11.2-1.3,14.9c-3.2,15.7-15.1,21.4-32.9,21.4c-8.4,0-18.4-2-24.2-8.7c-5.1-5.7-6.2-13.5-6.2-26.5v-57.7h-18.9v58.7
		c0,12,1.3,23.2,9.5,31.3c7.6,7.6,22.5,11,39.3,11C586,679.6,600.9,671.3,605.6,651.6L605.6,651.6z"/>
	<path fill-rule="evenodd" clip-rule="evenodd" fill="#212121" d="M737.6,677.4h22.5l-48.2-98.8h-11.7l-49.3,98.8h12l13.3-27.7h49
		L737.6,677.4L737.6,677.4z M701.3,597.3l20.8,45.6h-42.7L701.3,597.3L701.3,597.3z"/>
	<path fill-rule="evenodd" clip-rule="evenodd" fill="#212121" d="M287.9,677.4h22.5l-48.2-98.8h-11.7l-49.3,98.8h12l13.3-27.7h49
		L287.9,677.4L287.9,677.4z M251.5,597.3l20.8,45.6h-42.7L251.5,597.3L251.5,597.3z"/>
	<path fill-rule="evenodd" clip-rule="evenodd" fill="#212121" d="M413.2,679.6c12.2,0,27.9-2.3,39-7.3V632h-18.9v36.1
		c-6.1,2.3-14.9,3.5-21.3,3.5c-25.1,0-41.5-17.2-41.5-42.4c0-27.8,18.5-44.6,45.3-44.6c11.8,0,23.9,4.7,33.1,11.6v-11.7
		c-10.1-5.1-23.1-7.7-34.4-7.7c-18.6,0-38.2,5.6-51.2,19.7c-8.3,9.1-13.7,21.7-13.7,34C349.6,668.4,380.6,679.6,413.2,679.6
		L413.2,679.6z"/>
	<path fill-rule="evenodd" clip-rule="evenodd" fill="#212121" d="M873,677.4h21.8l-29-40.1c10.3-3.6,21.8-12.9,21.8-28.2
		c0-8.4-2.3-14.8-6.5-19.5c-8.1-8.9-22.6-11-37.1-11h-35.7v98.8h18.9v-37.9h19.8L873,677.4L873,677.4z M841,585.5
		c15.1,0,27.3,6.3,27.3,23c0,8.3-3,14.5-8,18.5c-4.7,3.8-10.8,5.7-21,5.7h-12.2v-47.3H841L841,585.5z"/>
	<path fill-rule="evenodd" clip-rule="evenodd" fill="#212121" d="M121.3,697.7c17.2-8.4,24.2-26.1,24.2-44.3v-74.8h-18.9v62.1
		c0,8.7,0,17.5-1.1,26.2c-1.9,15.8-7.3,25.3-20.3,34.6C110.8,701.6,116.3,700.1,121.3,697.7L121.3,697.7z"/>
</g>
</svg>
