<?xml version="1.0" encoding="utf-8"?>
<!-- Generator: Adobe Illustrator 17.1.0, SVG Export Plug-In . SVG Version: 6.00 Build 0)  -->
<!DOCTYPE svg PUBLIC "-//W3C//DTD SVG 1.1//EN" "http://www.w3.org/Graphics/SVG/1.1/DTD/svg11.dtd">
<svg version="1.1" id="Layer_1" xmlns="http://www.w3.org/2000/svg" xmlns:xlink="http://www.w3.org/1999/xlink" x="0px" y="0px"
	 viewBox="0 0 1000 1000" enable-background="new 0 0 1000 1000" xml:space="preserve">
<path fill="#212121" d="M571.7,581.1c0,1.7,0.5,2.7,1.5,2.7c0.8-0.1,1.5-0.4,2.1-0.9l278.8-181c4.7-3.3,10.4-5,16.1-4.8h61.3
	c9.4,0,15.7,6.3,15.7,15.7v117c0,14.1-3.1,22.4-15.7,29.9l-74.3,44.7c-0.7,0.5-1.6,0.8-2.5,0.9c-0.9,0-1.8-0.7-1.8-3.3V465.4
	c0-1.6-0.4-2.7-1.5-2.7c-0.8,0.1-1.5,0.4-2.1,0.9L645.6,595.9c-4.6,3.1-10.1,4.8-15.7,4.7H494.8c-9.5,0-15.7-6.3-15.7-15.7V416.3
	c0-1.2-0.5-2.4-1.6-2.4c-0.8,0.1-1.5,0.4-2.1,0.9L341,495.6c-1.3,0.9-1.7,1.5-1.7,2.1c0,0.6,0.3,1.1,1.2,2l96.1,96
	c1.2,1.2,2.1,2.2,2.1,3.3s-1.4,1.6-3.1,1.6h-86.9c-6.8,0-12.1-1-15.7-4.7l-58.2-58.1c-0.4-0.5-1.1-0.9-1.8-0.9
	c-0.6,0-1.2,0.2-1.8,0.5l-97.3,58.4c-4.6,3.1-10.2,4.7-15.7,4.6H68.5c-9.6,0-15.8-6.3-15.8-15.7V470.2c0-14.2,3.1-22.4,15.7-29.9
	l74.7-44.9c0.6-0.4,1.2-0.6,1.9-0.6c1.2,0,1.8,1.2,1.8,3.8v153.7c0,1.6,0.4,2.3,1.5,2.3c0.8-0.1,1.6-0.4,2.2-0.9l252.6-152
	c4.9-3.3,10.7-4.9,16.6-4.7h136c9.4,0,15.7,6.3,15.7,15.7L571.7,581.1L571.7,581.1z"/>
</svg>
