<?xml version="1.0" encoding="utf-8"?>
<!-- Generator: Adobe Illustrator 17.1.0, SVG Export Plug-In . SVG Version: 6.00 Build 0)  -->
<!DOCTYPE svg PUBLIC "-//W3C//DTD SVG 1.1//EN" "http://www.w3.org/Graphics/SVG/1.1/DTD/svg11.dtd">
<svg version="1.1" id="Layer_1" xmlns="http://www.w3.org/2000/svg" xmlns:xlink="http://www.w3.org/1999/xlink" x="0px" y="0px"
	 viewBox="0 0 1000 1000" enable-background="new 0 0 1000 1000" xml:space="preserve">
<g>
	<polygon fill-rule="evenodd" clip-rule="evenodd" fill="#212121" points="168.4,751.4 827.6,751.4 499.7,423.5 168.4,751.4 	"/>
	<polygon fill-rule="evenodd" clip-rule="evenodd" fill="#212121" points="155.8,734.9 207.2,684.8 190.1,667.3 157.8,698.7 
		101,640.5 81.9,659.1 155.8,734.9 	"/>
	<polygon fill-rule="evenodd" clip-rule="evenodd" fill="#212121" points="218.4,673.4 271.1,622 256.6,607.2 223.2,639.8 
		207.2,623.4 233.9,597.3 218.8,581.8 192,607.9 178.3,593.8 210.6,562.3 196.2,547.5 143.7,598.6 218.4,673.4 	"/>
	<path fill-rule="evenodd" clip-rule="evenodd" fill="#212121" d="M346.4,549.1c0,0-47.3-16.1-49.5-15.7
		c-0.7,0.1,10.2-28.8-14.3-41.6c0,0-18.1-9.8-36.3,6.7l-38.7,38.1l74.6,75.1l19.7-19.2L261.6,551l65.2,17.2L346.4,549.1z
		 M273.2,538.8c-11,10.7-12.4,11.5-12.4,11.5s-17.2-17.6-17.8-18.3c-0.6-0.6,12.3-11.7,14.3-13.7c0.9-0.8,8.9-6.1,15.5,0.7
		C272.8,519.2,284.1,528.1,273.2,538.8z"/>
	<path fill-rule="evenodd" clip-rule="evenodd" fill="#212121" d="M390.7,430c-21.2-21.8-58-19.1-75.8-1.8s-26.8,51.8-1.7,77.5
		c27.5,28.2,60.2,18,78,0.7C417.3,480.7,408,447.7,390.7,430z M375.1,491.3c-11.7,11.5-26.1,8.3-42.5-8.5
		c-13.8-14.1-13-28.3-2.9-38.1c6.9-6.7,20.9-12.7,37.5,4.3C386.2,468.6,386.8,479.9,375.1,491.3z"/>
	<polygon fill-rule="evenodd" clip-rule="evenodd" fill="#212121" points="449.9,448 469.3,429.1 440.1,399.2 422.6,326.4 
		400.3,348.1 411.9,389.4 372.8,375 351.8,395.5 418.5,416.9 449.9,448 	"/>
	<polygon fill-rule="evenodd" clip-rule="evenodd" fill="#212121" points="443.8,340.7 426.6,323.4 501.9,248.6 526.6,273.5 
		499.4,326.9 554.7,301.9 578.5,325.8 503.1,400.5 485,382.2 524.7,342.8 470.3,367.5 459.1,356.1 484.4,301.8 443.8,340.7 	"/>
	<polygon fill-rule="evenodd" clip-rule="evenodd" fill="#212121" points="574.6,472.6 522.4,420 597.7,345.2 650.1,398.1 
		634.9,413.1 602.1,380.1 589.8,392.2 615.7,418.3 599.8,434 574.1,408.1 557.6,424.4 590.1,457.2 574.6,472.6 	"/>
	<path fill-rule="evenodd" clip-rule="evenodd" fill="#212121" d="M712.8,461.3L667,415.1l-75.5,74.6l19.4,19.6l41.1-40.8
		l-14.8,67.4l19.9,20c0,0,15.7-48.2,16.1-50.2c0,0,17,9.3,35.6-6.7C708.9,499,726.8,481.6,712.8,461.3z M684.8,483.1
		c0,0-9.6,6.5-18.1-2.1l-13.3-14c0,0,16-15.9,18-17.9c0,0,12.3,12.4,13.9,14S696.7,472,684.8,483.1z"/>
	<polygon fill-rule="evenodd" clip-rule="evenodd" fill="#212121" points="746.8,495.6 766.2,515.2 709.2,571.7 741.1,603.8 
		722.8,622 671.5,570.3 746.8,495.6 	"/>
	<polygon fill-rule="evenodd" clip-rule="evenodd" fill="#212121" points="736.3,635.7 811.7,561 830.6,580.1 755.3,654.8 
		736.3,635.7 	"/>
	<polygon fill-rule="evenodd" clip-rule="evenodd" fill="#212121" points="789.6,689.4 771.9,671.6 847.3,596.8 873,622.8 
		851,700.3 900.9,650.9 918.1,668.3 842.8,743 820.3,720.3 839.7,638.9 789.6,689.4 	"/>
</g>
</svg>
