<?xml version="1.0" encoding="utf-8"?>
<!-- Generator: Adobe Illustrator 17.1.0, SVG Export Plug-In . SVG Version: 6.00 Build 0)  -->
<!DOCTYPE svg PUBLIC "-//W3C//DTD SVG 1.1//EN" "http://www.w3.org/Graphics/SVG/1.1/DTD/svg11.dtd">
<svg version="1.1" id="Layer_1" xmlns="http://www.w3.org/2000/svg" xmlns:xlink="http://www.w3.org/1999/xlink" x="0px" y="0px"
	 viewBox="0 0 1000 1000" enable-background="new 0 0 1000 1000" xml:space="preserve">
<g>
	<path fill-rule="evenodd" clip-rule="evenodd" fill="#868686" d="M292.4,632c8.1,10.2,88.3,114.4,207.6,114.4
		c86.8,0,163.3-45.2,207.2-113.3l-203.9-78v-47.7l202.3,115.2c4.9,2.4,6.5,1.2,2-2.4L529,489.8l17.5-9.8L715,620.1
		c20-35.6,31.4-76.6,31.4-120.1c0-133.8-107.6-243.3-240.7-246.3l37.6,217.8l-41.6,24.5l-2.3-239.2c0-2.9-2-2.9-2.4,0l-23,226.2
		l-17.1-10.2l34.9-218.9C359.8,258.1,253.6,367,253.6,500c0,43.1,11.2,83.7,30.7,119l167.6-139.4l17.5,10.2L290.9,619.9
		c-4.9,3.3-3.7,4.9,2,2l202.6-115.1v47.7l-202.3,77.1C292,632.2,293.4,631.7,292.4,632L292.4,632z M500,241.2
		c142.5,0,258.8,116.3,258.8,258.8c0,142.5-116.3,258.8-258.8,258.8c-142.5,0-258.8-116.2-258.8-258.8
		C241.2,357.5,357.5,241.2,500,241.2L500,241.2z M500,855.1c195.6,0,355-159.5,355-355.1c0-195.5-159.5-355-355-355
		S145,304.4,145,500C145,695.5,304.4,855.1,500,855.1L500,855.1z M500,868.3c202.9,0,368.3-165.4,368.3-368.3
		c0-202.8-165.4-368.3-368.3-368.3S131.7,297.1,131.7,500C131.7,702.9,297.1,868.3,500,868.3L500,868.3z M804,358.4
		c-0.7-1.5-2.4-1.5-2.9-0.4c-1.7,5.6-1,9.9,2.1,16.5c6,13.1,11.1,26.6,14.7,40.8c0.5,1.6,1.7,1.8,2.6,0.9c3.5-6.5,2.3-15.2-2.4-27.1
		C813.8,378.7,809.2,368.4,804,358.4L804,358.4z M774.6,430.1c1,0.4,2-0.5,1.7-1.9c-4.4-11.8-8.8-23.6-13.2-35.3
		c-2.1-5.6-6.5-9.3-11-10.4c-1.3-0.4-2.4,0.7-1.7,1.8c4,9.1,7.8,18.2,11.2,27.5C764.7,420,769.3,427.6,774.6,430.1L774.6,430.1z
		 M835.9,484.2c-0.1-1.6-1.6-2.3-2.5-1.5c-3.7,4.5-4.8,8.7-4.5,16c0.4,14.4-0.3,28.8-2.5,43.3c-0.1,1.6,0.8,2.3,2,1.9
		c5.8-4.6,8.1-13.1,8.5-25.9C837,506.7,836.8,495.5,835.9,484.2L835.9,484.2z M780.8,538.6c0.8,0.7,2.1,0.4,2.3-1
		c0.6-12.6,1.2-25.1,1.8-37.7c0.2-6-2.3-11.1-6.1-13.9c-1.1-0.9-2.5-0.3-2.3,0.9c0.1,9.9,0,19.8-0.5,29.7
		C775.6,525.5,776.8,534.2,780.8,538.6L780.8,538.6z M816.3,614.9c0.6-1.5-0.5-2.8-1.7-2.4c-5.3,2.5-8,5.9-10.8,12.7
		c-5.7,13.3-12.2,26.1-20.3,38.3c-0.8,1.4-0.2,2.5,1.1,2.5c7.2-1.8,12.8-8.6,18.5-20C808,635.8,812.5,625.5,816.3,614.9L816.3,614.9
		z M743.6,641.4c0.4,1,1.7,1.2,2.5,0c5.8-11.2,11.5-22.4,17.2-33.5c2.7-5.3,2.6-11.1,0.3-15.2c-0.6-1.2-2.1-1.3-2.5-0.1
		c-4,9.1-8.2,18-12.8,26.8C744.4,627.3,741.8,635.8,743.6,641.4L743.6,641.4z M774.9,357c0.2,1.5-1,2.5-2.1,1.8
		c-9.5-6.8-14.7-15.2-16-27.1c0-1.5,1.3-2,2.6-1.4C768.9,337.8,773.7,346.1,774.9,357L774.9,357z M745.9,728
		c1.1-1.2,0.6-2.8-0.7-2.8c-5.8,0.4-9.6,2.6-14.7,7.8c-10.2,10.2-21,19.7-33,28.1c-1.3,1-1.1,2.2,0.1,2.8c7.3,1,15-3.2,24.6-11.8
		C730.3,744.4,738.4,736.4,745.9,728L745.9,728z M668.5,725.7c0,1.1,1.2,1.7,2.3,0.9c9.5-8.3,19-16.5,28.4-24.8
		c4.5-4,6.5-9.3,5.9-14c-0.1-1.4-1.5-2-2.3-1c-7.1,6.9-14.3,13.7-21.8,20.2C674.4,713,668.9,719.9,668.5,725.7L668.5,725.7z
		 M806.1,437c1.2-0.8,2.3-1.4,3.3-2.7c2.9-4.2,2.6-10.4,0.7-17c-4.5-13.4-8.6-26.2-14.2-39.1c-3-6.5-4.6-16.3-3.2-21
		c2.1-7.5,5.4-14.5,7.1-21.8c0.6-1.9,3.2-1.5,4.7,0.8c8.4,14.2,15.4,28.9,21.7,44c7.5,16.7,7.8,34.6,0.4,47.9
		c-4.7,7.8-12.2,14.9-18.7,19.2c-0.6,0.4-0.9,1.1-0.8,1.8c0.7,5,1.6,10,2.1,15.1c0.1,1.3,1.1,1.4,1.6,1c4.4-3.4,8.4-7.5,12.3-11.9
		c0.8-0.9,1.1-1.9,0.8-3.2c-0.2-0.7-0.3-1.5-0.3-2.2c0-4.7,3.8-8.5,8.5-8.5c4.7,0,8.5,3.8,8.5,8.5c0,4.7-3.8,8.5-8.5,8.5
		c-0.9,0-1.8-0.2-2.7-0.4c-0.9-0.3-2.4,0-3.1,0.9c-3.4,3.2-6.7,6.9-9.8,10.4c-2.8,3.3-4.3,7.4-5.1,11.5c-0.6,2.7-0.6,4.6-0.5,7.3
		c0.2,4.4,0.3,8.8,0.3,13.3c0,19.5-1.8,38.5-5.3,57c-0.2,0.8,0.2,1.4,0.8,1.3c1.5-0.2,2.9-0.6,4.4-1.2c4.3-2.7,6.5-8.5,7.3-15.3
		c1.1-14.1,2.4-27.5,2.3-41.6c-0.2-7.2,2.1-16.8,5.3-20.6c4.9-6,10.7-11.2,15.1-17.3c1.3-1.5,3.5-0.1,4,2.5
		c2.2,16.3,2.8,32.7,2.7,49c0.3,18.3-6.4,34.9-18.5,44.1c-7.4,5.3-17.1,8.9-24.7,10.4c-0.5,0.1-1.2,0.7-1.4,1.3
		c-1.1,4.6-2.3,9.2-3.5,13.8c-0.5,1.5,0,2.4,1.6,1.9c5.6-1.6,11.6-3.8,16.7-6.6c1.1-0.5,1.7-1.4,1.8-2.7c0-0.7,0.2-1.5,0.5-2.2
		c1.5-4.4,6.4-6.7,10.8-5.2c4.4,1.5,6.7,6.4,5.2,10.8c-1.5,4.4-6.4,6.7-10.8,5.2c-0.9-0.3-1.7-0.7-2.4-1.3c-0.7-0.6-2.3-0.8-3.3-0.2
		c-4.3,1.9-8.7,4.3-12.7,6.6c-4,2.4-8.6,6.7-11.9,11c-1.5,1.9-2.1,3.2-2.9,5.4c-8.3,22.5-19.1,43.7-32,63.4c-0.3,0.4-0.2,1,0.3,1.1
		c1,0.2,2.1,0.3,3.2,0.3c5.1-0.7,9.4-5,13.1-10.9c6.9-12.4,13.6-24,19.4-36.9c2.8-6.6,8.9-14.4,13.4-16.6c7-3.4,14.4-5.8,20.9-9.4
		c1.8-0.8,3.3,1.4,2.6,3.9c-4.8,15.8-11,30.9-17.9,45.7c-7.3,16.8-20.4,29.1-35.1,32.5c-8.3,1.6-17.8,1.1-25.1-0.5
		c-0.5-0.1-1.1,0.1-1.4,0.5c-3.3,4.6-6.7,9.1-10.2,13.5c-0.4,0.5-0.5,0.9,0.3,1.1c6,0.8,12.9,1.3,18.9,0.7c1.2-0.1,2.1-0.7,2.7-1.8
		c0.3-0.7,0.8-1.3,1.3-1.9c3.2-3.4,8.6-3.6,12-0.5c3.4,3.2,3.6,8.6,0.5,12c-3.2,3.4-8.6,3.6-12,0.5c-0.7-0.6-1.2-1.4-1.7-2.1
		c-0.4-0.8-1.8-1.6-2.9-1.5c-4.7,0-9.7,0.5-14.3,1.1c-3.8,0.5-8.5,2-12.7,4c-3,1.4-4,2.4-6.2,4.8c-16.7,18.1-35.6,34.3-56.2,48
		c-0.5,0.4-0.6,1-0.1,1.3c1.2,1,2.3,1.6,3.8,2.2c4.9,1.2,10.6-1.2,16.2-5.3c10.9-8.9,21.5-17.3,31.6-27.1c5.1-5.1,13.6-10,18.5-10.4
		c7.7-0.6,15.5,0,22.9-1c1.9-0.1,2.5,2.5,0.9,4.6c-10.3,12.9-21.7,24.6-33.5,35.8c-13,12.9-29.7,19.5-44.7,17.2
		c-8.9-1.7-18.2-6.2-24.6-10.7c-0.4-0.3-1-0.3-1.5,0c-5,3.1-10.1,6-15.3,8.8c-0.7,0.5-1.3,0.2-1.6-0.6l-1.4-2.9
		c-0.3-0.8,0-1.4,0.7-1.8c5-2.7,9.9-5.5,14.7-8.5c0.5-0.4,0.7-0.9,0.6-1.3c-1.4-7-1.4-12.7-1-20.5c0.3-11.3,3.1-22.8,10.1-29.7
		c10.3-9.4,18.4-14.7,24-20.6c4.8-4.9,8.5-9.8,12.8-15c1.2-1.3,3.3-1.3,4.1,0.7c8.5,20.6,2.6,33.8-9.9,44.3
		c-8.8,7.2-17.7,14.3-26.5,21.5c-3.9,3.7-5.8,8.4-5.1,13.3c0.1,0.7,0.6,1.1,1,0.7c20.2-13.5,38.8-29.3,55.2-47.1
		c2.1-2.2,2.5-3.8,3.2-6.1c1.9-7.2,2.1-14.5-0.2-22.2c-0.3-1.1-1.5-2.1-2.5-2.2c-0.9-0.1-1.7-0.4-2.6-0.8c-4.2-2-6-7.1-4-11.3
		c2-4.2,7.1-6,11.3-4c4.2,2,6,7.1,4,11.3c-0.3,0.7-0.8,1.3-1.2,1.9c-0.8,1-1.1,2.1-0.7,3.2c1.5,5.1,3.1,10,5.3,14.6
		c0.1,0.4,0.6,0.4,0.8,0.1c3.4-4.3,6.5-8.6,9.9-13c0.3-0.3,0.2-1,0-1.4c-4.4-6.5-6.7-12.1-9.4-20c-3.9-10.6-5.6-22.3-1.6-31.3
		c6-12.6,11.7-20.5,14.7-28c2.7-6.3,4.3-12.2,6.3-18.6c0.6-1.6,2.6-2.4,4-0.9c15.5,16,14.9,30.4,7.2,44.8
		c-5.5,10-11.2,19.8-16.7,29.8c-2.5,5.4-2.3,11,1,15.7c0.4,0.5,0.9,0.5,1.2,0c14.9-19.6,24.5-42.4,32.8-65.7c0.5-1.5,0.6-3,0.4-4.7
		c-1.1-7.3-3.9-14.1-9-20.2c-0.7-0.9-2.2-1.3-3.1-1c-0.8,0.2-1.7,0.4-2.7,0.3c-4.7-0.2-8.3-4.1-8.2-8.8c0.2-4.7,4.1-8.3,8.8-8.2
		c4.7,0.2,8.3,4.1,8.2,8.8c0,0.8-0.2,1.5-0.4,2.2c-0.4,1.2-0.1,2.3,0.7,3.2c3.1,3.7,6.2,7.2,9.6,10.4c0.9,0.8,1.5,0.5,1.8-0.8
		c1.3-4.7,2.6-9.5,3.7-14.3c0.2-0.6-0.2-1.3-0.6-1.6c-5.8-3.8-9.9-7.7-15.1-13.2c-8-8-14.3-18-14.4-27.9c0.3-13.9,2.1-23.5,1.7-31.6
		c-0.2-6.9-1.1-12.9-2-19.6c-0.1-1.7,1.4-3.3,3.3-2.5c20.7,8.1,26.2,21.5,25.2,37.8c-0.8,11.3-1.9,22.7-2.8,34.1
		c0,5.5,2,10.1,6.2,13c0.6,0.5,1,0,1.1-0.6c3.4-18.2,5.2-36.9,5.2-56c0-1.8,0-3.6-0.1-5.4c-0.2-11.6-9.8-24.3-19.6-30.1
		c-1-0.6-2.5-0.5-3.3,0.1c-0.7,0.5-1.5,0.9-2.4,1.2c-4.5,1.4-9.2-1.1-10.6-5.6c-1.4-4.5,1.1-9.2,5.6-10.6c4.5-1.4,9.2,1.1,10.6,5.6
		c0.2,0.7,0.3,1.5,0.4,2.2c0,1.3,0.6,2.2,1.7,2.8c4.9,2.9,9.8,5.6,14.8,7.6c0.8,0.3,1.1-0.3,1-1.3c-0.6-5.4-1.3-10.8-2.2-16.1
		c-0.1-0.5-0.6-1-1.2-1.1c-6.8-1.2-12.1-3.2-19.1-6.2c-10.5-4.2-20.2-10.9-24.2-20c-5.2-12.9-7.3-22.4-10.8-29.7
		c-2.9-6.2-6.1-11.4-9.5-17.2c-0.8-1.5,0-3.6,2.1-3.6c22.3-0.7,32.5,9.4,38,24.8c3.7,10.8,7.1,21.6,10.8,32.4
		c2.1,5.1,5.9,8.5,10.9,9.6c0.6,0.1,0.8-0.5,0.7-1.2c-4.1-19.9-10.2-39.1-18.1-57.3c-1.5-3.8-3.7-6.2-6.9-8.7
		c-17.3-14-26.5-26.5-28.3-55c-0.1-1.8,0.9-2.1,2.5-1.3c19.7,9.6,39.1,19.4,36.4,52.4c-0.3,4.1,0,6.6,1.7,10.4
		c8,18.6,14.2,38.2,18.4,58.4C804.9,437.1,805.5,437.5,806.1,437L806.1,437z M691.3,278.5l10.8,9.6c-3,3.9-4.4,7.6-4.2,11.1
		c0.2,3.5,1.8,6.9,4.8,10.1c3.2,3.5,6.4,5.4,9.6,5.8c3.1,0.4,5.7-0.3,7.6-2.2c1.3-1.2,2-2.6,2.2-4.1c0.2-1.6-0.2-3.6-1.3-6.1
		c-0.7-1.7-2.7-5.3-5.7-10.8c-4-7.1-6-12.9-6.1-17.1c-0.1-6,1.9-11,6.2-15c2.7-2.5,6-4.1,9.8-4.8c3.8-0.7,7.7-0.1,11.7,1.6
		c4,1.8,7.8,4.7,11.7,8.8c6.3,6.7,9.5,13.2,9.7,19.3c0.2,6.1-2.1,11.6-6.8,16.4l-10.6-10.4c2.3-3,3.4-5.9,3.2-8.5
		c-0.2-2.7-1.7-5.5-4.6-8.5c-2.9-3.1-5.9-5-8.8-5.6c-1.9-0.4-3.5,0.1-4.9,1.4c-1.3,1.2-1.9,2.7-1.8,4.6c0.1,2.4,2,6.9,5.7,13.3
		c3.7,6.4,6,11.5,7,15.3c1,3.8,1,7.4,0.1,11c-1,3.6-3.2,6.9-6.5,10.1c-3.1,2.9-6.7,4.7-11,5.5c-4.3,0.8-8.5,0.2-12.7-1.7
		c-4.2-1.9-8.5-5.2-12.8-9.8c-6.3-6.8-9.6-13.4-9.9-20C683.4,291.2,686,284.8,691.3,278.5L691.3,278.5z M630.4,264.7l43-59.2
		l43.9,31.9l-7.3,10l-32-23.2l-9.5,13.1l29.7,21.6l-7.2,10l-29.7-21.6l-11.7,16.1l33.1,24l-7.3,10L630.4,264.7L630.4,264.7z
		 M609,189.8l-18.2,45l10.2,4.1c3.8,1.5,6.7,2.5,8.6,2.7c2.4,0.3,4.7,0.2,6.7-0.6c2-0.7,4.1-2.4,6.2-5.1c2.1-2.7,4.3-6.6,6.4-11.9
		c2.1-5.2,3.3-9.5,3.5-12.6c0.2-3.2-0.2-5.9-1.2-8.1c-1-2.3-2.7-4.2-5.1-5.8c-1.7-1.2-5.4-2.9-11-5.2L609,189.8L609,189.8z
		 M600,172.7l25.1,10.1c5.6,2.3,9.8,4.4,12.4,6.5c3.5,2.8,6.1,6.2,7.7,10.4c1.6,4.1,2.3,8.7,2.1,13.6c-0.3,4.9-1.7,10.6-4.3,17
		c-2.3,5.6-4.9,10.1-7.9,13.6c-3.7,4.2-7.7,7.3-12.1,9c-3.3,1.4-7.2,1.9-11.8,1.5c-3.4-0.3-7.6-1.4-12.7-3.5l-25.8-10.4L600,172.7
		L600,172.7z M514.7,231.2l12.1-72.2l53.5,8.9l-2,12.2l-39-6.5l-2.7,16l36.3,6.1l-2,12.2l-36.3-6.1l-3.3,19.7l40.3,6.7l-2,12.2
		L514.7,231.2L514.7,231.2z M499.4,204.3l14.7,3.3c-1.5,8.2-4.6,14.4-9.4,18.7c-4.7,4.3-11,6.8-18.9,7.5c-9.7,0.8-17.9-1.8-24.7-7.8
		c-6.8-6.1-10.7-14.9-11.7-26.3c-1.1-12.1,1.3-21.8,6.9-29.1c5.7-7.3,13.6-11.3,23.8-12.2c8.9-0.8,16.4,1.2,22.4,6
		c3.6,2.8,6.5,7.1,8.6,12.8l-14.3,4.8c-1.2-3.7-3.2-6.5-6.2-8.5c-2.9-2-6.4-2.7-10.3-2.4c-5.4,0.5-9.6,2.8-12.7,7
		c-3,4.2-4.2,10.6-3.4,19.3c0.8,9.2,3,15.7,6.7,19.3c3.7,3.6,8.1,5.2,13.4,4.7c3.9-0.3,7.2-1.9,9.8-4.6
		C497,213.8,498.7,209.7,499.4,204.3L499.4,204.3z M398.7,206.4l10.5-3c6.8-2,11-3.5,12.5-4.5c1.5-1.1,2.6-2.4,3.1-4.1
		c0.5-1.7,0.5-3.6-0.1-5.7c-0.7-2.4-1.9-4.1-3.5-5.2c-1.7-1.1-3.7-1.5-6.2-1.2c-1.2,0.2-4.7,1.1-10.4,2.7l-11.1,3.2L398.7,206.4
		L398.7,206.4z M396.1,251.1L376,180.7l29.9-8.6c7.5-2.2,13.2-3.1,16.9-2.8c3.8,0.3,7.2,1.7,10.1,4.4c3,2.7,5.1,6.1,6.2,10.2
		c1.5,5.3,1.2,10.1-0.9,14.4c-2.1,4.3-6.1,7.8-12.1,10.5c3.6,0.9,6.7,2.2,9.3,3.7c2.6,1.6,6.4,4.6,11.4,9.1l12.5,11.3l-17,4.9
		l-14.7-12.4c-5.2-4.4-8.7-7.2-10.5-8.2c-1.8-1-3.5-1.6-5.1-1.7c-1.7-0.1-4.1,0.3-7.4,1.3l-2.9,0.8l8.4,29.4L396.1,251.1
		L396.1,251.1z M346.4,280.2l-36.6-63.4l47-27.1l6.2,10.7l-34.2,19.8l8.1,14.1l31.8-18.4l6.2,10.7L343,244.8l10,17.3l35.4-20.5
		l6.2,10.7L346.4,280.2L346.4,280.2z M292.5,329l-50.9-52.7l15.9-15.4l44.3,26.7l-25.3-45.1l16-15.4l50.9,52.7l-9.9,9.5l-40-41.5
		l29.6,51.6l-10.2,9.9L262.3,278l40,41.5L292.5,329L292.5,329z M197,358.4c0.7-1.5,2.4-1.5,2.9-0.4c1.7,5.6,1,9.9-2.1,16.5
		c-6,13.1-11.1,26.6-14.7,40.8c-0.5,1.6-1.7,1.8-2.6,0.9c-3.5-6.5-2.3-15.2,2.4-27.1C187.2,378.7,191.8,368.4,197,358.4L197,358.4z
		 M226.4,430.1c-1,0.4-2-0.5-1.7-1.9c4.4-11.8,8.8-23.6,13.2-35.3c2.1-5.6,6.5-9.3,11-10.4c1.3-0.4,2.4,0.7,1.7,1.8
		c-4,9.1-7.8,18.2-11.2,27.5C236.3,420,231.7,427.6,226.4,430.1L226.4,430.1z M165.1,484.2c0.1-1.6,1.6-2.3,2.5-1.5
		c3.7,4.5,4.8,8.7,4.5,16c-0.4,14.4,0.3,28.8,2.5,43.3c0.1,1.6-0.8,2.3-2.1,1.9c-5.8-4.6-8.1-13.1-8.5-25.9
		C164,506.7,164.2,495.5,165.1,484.2L165.1,484.2z M220.2,538.6c-0.8,0.7-2.1,0.4-2.3-1c-0.6-12.6-1.2-25.1-1.8-37.7
		c-0.3-6,2.3-11.1,6.1-13.9c1.1-0.9,2.5-0.3,2.3,0.9c-0.1,9.9,0,19.8,0.5,29.7C225.4,525.5,224.2,534.2,220.2,538.6L220.2,538.6z
		 M184.7,614.9c-0.6-1.5,0.5-2.8,1.7-2.4c5.3,2.5,8,5.9,10.8,12.7c5.7,13.3,12.2,26.1,20.3,38.3c0.8,1.4,0.2,2.5-1.1,2.5
		c-7.2-1.8-12.8-8.6-18.5-20C193,635.8,188.5,625.5,184.7,614.9L184.7,614.9z M257.4,641.4c-0.4,1-1.7,1.2-2.5,0
		c-5.7-11.2-11.5-22.4-17.2-33.5c-2.7-5.3-2.6-11.1-0.3-15.2c0.6-1.2,2.1-1.3,2.5-0.1c4,9.1,8.2,18,12.8,26.8
		C256.7,627.3,259.2,635.8,257.4,641.4L257.4,641.4z M226.1,357c-0.2,1.5,1,2.5,2.1,1.8c9.5-6.8,14.7-15.2,16-27.1
		c0-1.5-1.3-2-2.6-1.4C232.1,337.8,227.3,346.1,226.1,357L226.1,357z M255.2,728c-1.1-1.2-0.6-2.8,0.7-2.8c5.8,0.4,9.6,2.6,14.7,7.8
		c10.2,10.2,21,19.7,33,28.1c1.3,1,1.1,2.2-0.1,2.8c-7.3,1-15-3.2-24.6-11.8C270.7,744.4,262.7,736.4,255.2,728L255.2,728z
		 M332.5,725.7c0,1.1-1.2,1.7-2.3,0.9c-9.5-8.3-19-16.5-28.4-24.8c-4.5-4-6.5-9.3-5.8-14c0.1-1.4,1.5-2,2.3-1
		c7.1,6.9,14.3,13.7,21.8,20.2C326.6,713,332.1,719.9,332.5,725.7L332.5,725.7z M194.9,437c-1.2-0.8-2.3-1.4-3.3-2.7
		c-2.9-4.2-2.6-10.4-0.7-17c4.5-13.4,8.6-26.2,14.2-39.1c3-6.5,4.6-16.3,3.2-21c-2.1-7.5-5.4-14.5-7.1-21.8
		c-0.6-1.9-3.2-1.5-4.7,0.8c-8.4,14.2-15.4,28.9-21.7,44c-7.5,16.7-7.8,34.6-0.4,47.9c4.7,7.8,12.2,14.9,18.7,19.2
		c0.6,0.4,0.9,1.1,0.8,1.8c-0.7,5-1.6,10-2.1,15.1c-0.1,1.3-1.1,1.4-1.6,1c-4.4-3.4-8.4-7.5-12.3-11.9c-0.8-0.9-1.1-1.9-0.8-3.2
		c0.2-0.7,0.3-1.5,0.3-2.2c0-4.7-3.8-8.5-8.5-8.5c-4.7,0-8.5,3.8-8.5,8.5c0,4.7,3.8,8.5,8.5,8.5c0.9,0,1.8-0.2,2.7-0.4
		c0.9-0.3,2.4,0,3.1,0.9c3.4,3.2,6.7,6.9,9.8,10.4c2.8,3.3,4.3,7.4,5.1,11.5c0.6,2.7,0.6,4.6,0.5,7.3c-0.2,4.4-0.3,8.8-0.3,13.3
		c0,19.5,1.8,38.5,5.3,57c0.2,0.8-0.2,1.4-0.8,1.3c-1.5-0.2-2.9-0.6-4.4-1.2c-4.3-2.7-6.5-8.5-7.3-15.3c-1.1-14.1-2.4-27.5-2.3-41.6
		c0.2-7.2-2.1-16.8-5.3-20.6c-4.9-6-10.7-11.2-15.1-17.3c-1.3-1.5-3.5-0.1-4,2.5c-2.2,16.3-2.8,32.7-2.7,49
		c-0.4,18.3,6.4,34.9,18.5,44.1c7.4,5.3,17.1,8.9,24.7,10.4c0.5,0.1,1.2,0.7,1.4,1.3c1.1,4.6,2.3,9.2,3.5,13.8
		c0.5,1.5,0,2.4-1.6,1.9c-5.6-1.6-11.6-3.8-16.7-6.6c-1.1-0.5-1.7-1.4-1.8-2.7c0-0.7-0.2-1.5-0.5-2.2c-1.5-4.4-6.4-6.7-10.8-5.2
		c-4.4,1.5-6.7,6.4-5.2,10.8c1.5,4.4,6.4,6.7,10.8,5.2c0.9-0.3,1.7-0.7,2.4-1.3c0.7-0.6,2.3-0.8,3.3-0.2c4.3,1.9,8.7,4.3,12.7,6.6
		c4,2.4,8.5,6.7,11.9,11c1.5,1.9,2.1,3.2,2.9,5.4c8.3,22.5,19.1,43.7,32,63.4c0.3,0.4,0.2,1-0.3,1.1c-1,0.2-2.1,0.3-3.2,0.3
		c-5.1-0.7-9.4-5-13.1-10.9c-6.9-12.4-13.6-24-19.4-36.9c-2.8-6.6-8.9-14.4-13.4-16.6c-7-3.4-14.4-5.8-20.9-9.4
		c-1.8-0.8-3.3,1.4-2.6,3.9c4.8,15.8,11,30.9,17.9,45.7c7.3,16.8,20.4,29.1,35.1,32.5c8.3,1.6,17.8,1.1,25.1-0.5
		c0.5-0.1,1.1,0.1,1.4,0.5c3.3,4.6,6.7,9.1,10.2,13.5c0.4,0.5,0.5,0.9-0.3,1.1c-6,0.8-12.8,1.3-18.9,0.7c-1.2-0.1-2.1-0.7-2.7-1.8
		c-0.3-0.7-0.8-1.3-1.3-1.9c-3.2-3.4-8.6-3.6-12-0.5c-3.4,3.2-3.6,8.6-0.5,12c3.2,3.4,8.6,3.6,12,0.5c0.7-0.6,1.2-1.4,1.7-2.1
		c0.4-0.8,1.8-1.6,2.9-1.5c4.7,0,9.7,0.5,14.3,1.1c3.8,0.5,8.5,2,12.7,4c3,1.4,4,2.4,6.2,4.8c16.7,18.1,35.6,34.3,56.2,48
		c0.5,0.4,0.6,1,0.1,1.3c-1.2,1-2.3,1.6-3.8,2.2c-4.9,1.2-10.6-1.2-16.2-5.3c-10.9-8.9-21.5-17.3-31.6-27.1
		c-5.1-5.1-13.6-10-18.5-10.4c-7.7-0.6-15.5,0-22.9-1c-1.9-0.1-2.5,2.5-0.9,4.6c10.3,12.9,21.7,24.6,33.5,35.8
		c13,12.9,29.7,19.5,44.7,17.2c8.9-1.7,18.2-6.2,24.6-10.7c0.4-0.3,1-0.3,1.5,0c5,3.1,10.1,6,15.3,8.8c0.7,0.5,1.3,0.2,1.6-0.6
		l1.4-2.9c0.3-0.8,0-1.4-0.7-1.8c-5-2.7-9.9-5.5-14.7-8.5c-0.5-0.4-0.7-0.9-0.6-1.3c1.4-7,1.4-12.7,1-20.5
		c-0.3-11.3-3.1-22.8-10.1-29.7c-10.3-9.4-18.4-14.7-24-20.6c-4.8-4.9-8.5-9.8-12.8-15c-1.2-1.3-3.3-1.3-4.1,0.7
		c-8.5,20.6-2.6,33.8,9.9,44.3c8.8,7.2,17.7,14.3,26.5,21.5c3.9,3.7,5.8,8.4,5.1,13.3c-0.1,0.7-0.6,1.1-1,0.7
		c-20.2-13.5-38.8-29.3-55.2-47.1c-2.1-2.2-2.5-3.8-3.2-6.1c-1.9-7.2-2.1-14.5,0.2-22.2c0.3-1.1,1.5-2.1,2.4-2.2
		c0.9-0.1,1.7-0.4,2.6-0.8c4.2-2,6-7.1,4-11.3c-2-4.2-7.1-6-11.3-4c-4.2,2-6,7.1-4,11.3c0.3,0.7,0.8,1.3,1.2,1.9
		c0.8,1,1.1,2.1,0.7,3.2c-1.5,5.1-3.1,10-5.3,14.6c-0.1,0.4-0.6,0.4-0.8,0.1c-3.4-4.3-6.5-8.6-9.9-13c-0.3-0.3-0.2-1,0-1.4
		c4.4-6.5,6.7-12.1,9.4-20c3.9-10.6,5.6-22.3,1.5-31.3c-6-12.6-11.7-20.5-14.7-28c-2.7-6.3-4.3-12.2-6.3-18.6
		c-0.6-1.6-2.6-2.4-4-0.9c-15.5,16-14.9,30.4-7.2,44.8c5.5,10,11.2,19.8,16.7,29.8c2.5,5.4,2.3,11-1,15.7c-0.4,0.5-0.9,0.5-1.2,0
		c-14.9-19.6-24.5-42.4-32.8-65.7c-0.5-1.5-0.6-3-0.4-4.7c1.1-7.3,3.9-14.1,9-20.2c0.7-0.9,2.2-1.3,3.1-1c0.8,0.2,1.7,0.4,2.7,0.3
		c4.7-0.2,8.3-4.1,8.2-8.8c-0.2-4.7-4.1-8.3-8.8-8.2c-4.7,0.2-8.3,4.1-8.2,8.8c0,0.8,0.2,1.5,0.4,2.2c0.4,1.2,0.1,2.3-0.7,3.2
		c-3.1,3.7-6.2,7.2-9.6,10.4c-0.9,0.8-1.5,0.5-1.8-0.8c-1.3-4.7-2.6-9.5-3.7-14.3c-0.2-0.6,0.2-1.3,0.6-1.6
		c5.8-3.8,9.9-7.7,15.1-13.2c8-8,14.3-18,14.4-27.9c-0.3-13.9-2.1-23.5-1.7-31.6c0.2-6.9,1.1-12.9,2-19.6c0.1-1.7-1.4-3.3-3.3-2.5
		c-20.7,8.1-26.2,21.5-25.2,37.8c0.8,11.3,1.9,22.7,2.8,34.1c0,5.5-2,10.1-6.2,13c-0.6,0.5-1,0-1.1-0.6c-3.4-18.2-5.2-36.9-5.2-56
		c0-1.8,0-3.6,0.1-5.4c0.2-11.6,9.8-24.3,19.6-30.1c1-0.6,2.5-0.5,3.3,0.1c0.7,0.5,1.5,0.9,2.4,1.2c4.5,1.4,9.2-1.1,10.6-5.6
		c1.4-4.5-1.1-9.2-5.6-10.6c-4.5-1.4-9.2,1.1-10.6,5.6c-0.2,0.7-0.3,1.5-0.4,2.2c0,1.3-0.6,2.2-1.7,2.8c-4.9,2.9-9.8,5.6-14.8,7.6
		c-0.8,0.3-1.1-0.3-1-1.3c0.6-5.4,1.3-10.8,2.2-16.1c0.1-0.5,0.6-1,1.2-1.1c6.8-1.2,12.1-3.2,19.1-6.2c10.5-4.2,20.2-10.9,24.2-20
		c5.2-12.9,7.3-22.4,10.8-29.7c2.9-6.2,6.1-11.4,9.5-17.2c0.8-1.5,0-3.6-2.1-3.6c-22.3-0.7-32.5,9.4-38,24.8
		c-3.7,10.8-7.1,21.6-10.8,32.4c-2.1,5.1-5.9,8.5-10.9,9.6c-0.6,0.1-0.8-0.5-0.7-1.2c4.1-19.9,10.2-39.1,18.1-57.3
		c1.5-3.8,3.7-6.2,6.9-8.7c17.3-14,26.5-26.5,28.3-55c0.1-1.8-0.9-2.1-2.5-1.3c-19.7,9.6-39.1,19.4-36.4,52.4
		c0.3,4.1,0,6.6-1.7,10.4c-8,18.6-14.2,38.2-18.4,58.4C196.1,437.1,195.5,437.5,194.9,437L194.9,437z M436.6,838.3l7.3-72.9l54,5.4
		l-1.2,12.3l-39.3-4l-1.6,16.2l36.6,3.7l-1.2,12.3l-36.6-3.7l-2,19.8l40.7,4.1l-1.2,12.3L436.6,838.3L436.6,838.3z M581,834.2
		l-4.1-12.7l21.9-57.1L566.4,775l-3.8-11.8l51-16.6l3.6,10.9L594.2,817l39.6-12.9l3.8,11.7L581,834.2L581,834.2z M510.7,843.6
		l-8.7-72.7l14.3-1.7l35.6,45l-5.8-48.5l13.6-1.6l8.7,72.7l-14.7,1.8l-35-43.9l5.7,47.4L510.7,843.6L510.7,843.6z M390.5,747.5
		l27.6,9.8c5.5,1.9,9.5,3.6,12,5c2.5,1.4,4.6,3.2,6.2,5.4c1.6,2.2,2.7,4.7,3.2,7.6c0.6,2.9,0.3,5.8-0.7,8.8c-1.1,3.2-3.1,5.9-5.8,8
		c-2.7,2.1-5.8,3.3-9.2,3.6c3.8,2.7,6.3,5.9,7.5,9.7c1.2,3.8,1.1,7.6-0.3,11.6c-1.1,3.1-2.9,5.9-5.4,8.4c-2.5,2.4-5.3,4.1-8.5,5
		c-3.1,0.9-6.7,0.9-10.5,0c-2.4-0.6-8.1-2.4-17-5.5l-23.5-8.3L390.5,747.5L390.5,747.5z M400.4,763.9l-5.6,16l9.1,3.2
		c5.4,1.9,8.8,3,10.2,3.3c2.5,0.6,4.6,0.4,6.5-0.5c1.9-0.9,3.2-2.4,4-4.7c0.8-2.1,0.8-4.1,0.1-5.8c-0.7-1.8-2.2-3.2-4.4-4.3
		c-1.3-0.6-5.3-2.1-11.8-4.5L400.4,763.9L400.4,763.9z M390.7,791.4l-6.5,18.5l12.9,4.6c5,1.8,8.3,2.8,9.7,3c2.2,0.4,4.2,0,6-1
		c1.8-1,3.2-2.7,4-5.2c0.7-2.1,0.8-4,0.4-5.8c-0.5-1.8-1.6-3.4-3.2-4.7c-1.7-1.3-5.7-3.1-12-5.4L390.7,791.4L390.7,791.4z"/>
</g>
</svg>
