<?xml version="1.0" encoding="utf-8"?>
<!-- Generator: Adobe Illustrator 17.1.0, SVG Export Plug-In . SVG Version: 6.00 Build 0)  -->
<!DOCTYPE svg PUBLIC "-//W3C//DTD SVG 1.1//EN" "http://www.w3.org/Graphics/SVG/1.1/DTD/svg11.dtd">
<svg version="1.1" id="Layer_1" xmlns="http://www.w3.org/2000/svg" xmlns:xlink="http://www.w3.org/1999/xlink" x="0px" y="0px"
	 viewBox="0 0 1000 1000" enable-background="new 0 0 1000 1000" xml:space="preserve">
<g>
	<path fill="#212121" d="M677.3,460.1c-27.3-0.3-37.7,37.4-37.7,37.4h45C697.8,460,677.3,460.1,677.3,460.1z M677.3,460.1
		c-27.3-0.3-37.7,37.4-37.7,37.4h45C697.8,460,677.3,460.1,677.3,460.1z M236.8,404l-27.1,93.1h21.6c0,0,32.1,1.9,42-51.1
		C281.7,401.1,250.4,404,236.8,404z M236.8,404l-27.1,93.1h21.6c0,0,32.1,1.9,42-51.1C281.7,401.1,250.4,404,236.8,404z
		 M677.3,460.1c-27.3-0.3-37.7,37.4-37.7,37.4h45C697.8,460,677.3,460.1,677.3,460.1z M677.3,460.1c-27.3-0.3-37.7,37.4-37.7,37.4
		h45C697.8,460,677.3,460.1,677.3,460.1z M236.8,404l-27.1,93.1h21.6c0,0,32.1,1.9,42-51.1C281.7,401.1,250.4,404,236.8,404z
		 M236.8,404l-27.1,93.1h21.6c0,0,32.1,1.9,42-51.1C281.7,401.1,250.4,404,236.8,404z M677.3,460.1c-27.3-0.3-37.7,37.4-37.7,37.4
		h45C697.8,460,677.3,460.1,677.3,460.1z M677.3,460.1c-27.3-0.3-37.7,37.4-37.7,37.4h45C697.8,460,677.3,460.1,677.3,460.1z
		 M236.8,404l-27.1,93.1h21.6c0,0,32.1,1.9,42-51.1C281.7,401.1,250.4,404,236.8,404z M500,263.6C277.2,263.6,96.7,369.5,96.7,500
		c0,78.5,65.4,148.1,166,191c9.3-40.3,45.4-190.1,102-330.5c29.5-73.3,111-60.4,138.3-29.3c0,0,15.7,17.9,5.8,37.9c0,0-6,17-30.1,18
		c-16.6,0.7-30.1-13.5-30.1-30.1c0-13.2,8.5-24.3,20.3-28.4c-2-3.6-5.8-7.4-13.7-7.4c-15.1,0-24.3-14-66,106c-2,5.7-4,11.5-5.9,17.5
		h87.8l-44.2,136.6h-44.2l39.6-122.3h-43.7c-30.3,92.8-60.4,205.4-71.7,248.7c57.4,18.4,123.2,28.8,193.2,28.8
		c222.8,0,403.3-105.8,403.3-236.3C903.3,369.5,722.8,263.6,500,263.6z M327,442.5c-13,60.2-57.6,74.9-92.2,74.9H204l-14.6,52.5
		h-55.1l48.6-164.2h-19.5V386h113.9C277.2,386,340,382.3,327,442.5z M560.3,581.2H459.4l66.3-122.3h-39.9l6.1-14.2h98.8l-63.7,121.7
		h40.3L560.3,581.2z M726,511h-89.7c0,0-20.8,49.1,4.5,52.7c31.7,4.5,34.4-30.6,34.4-30.6h44.3c0,16.9-15.6,54.6-71.5,54.6
		c-63.9,0-61.2-50-56.7-70.8c4.5-20.3,21.5-80.1,86.6-80.1S726,511,726,511z M853.3,495.7c-12.3,0-22.6-8.6-25.4-20l0,0
		c-11.2-6-16.4,2.4-18.4,7.5l-1,3.4l-28,88.5h-51.1l40-116.3h-19.5v-16.6h65.1v6.5c19.7-6.9,39.6-5.2,39.6-5.2l-0.1,0.1
		c13.9,0.6,25.1,12,25.1,26C879.4,484,867.7,495.7,853.3,495.7z M677.3,460.1c-27.3-0.3-37.7,37.4-37.7,37.4h45
		C697.8,460,677.3,460.1,677.3,460.1z M236.8,404l-27.1,93.1h21.6c0,0,32.1,1.9,42-51.1C281.7,401.1,250.4,404,236.8,404z
		 M236.8,404l-27.1,93.1h21.6c0,0,32.1,1.9,42-51.1C281.7,401.1,250.4,404,236.8,404z M677.3,460.1c-27.3-0.3-37.7,37.4-37.7,37.4
		h45C697.8,460,677.3,460.1,677.3,460.1z M677.3,460.1c-27.3-0.3-37.7,37.4-37.7,37.4h45C697.8,460,677.3,460.1,677.3,460.1z
		 M236.8,404l-27.1,93.1h21.6c0,0,32.1,1.9,42-51.1C281.7,401.1,250.4,404,236.8,404z M236.8,404l-27.1,93.1h21.6
		c0,0,32.1,1.9,42-51.1C281.7,401.1,250.4,404,236.8,404z M677.3,460.1c-27.3-0.3-37.7,37.4-37.7,37.4h45
		C697.8,460,677.3,460.1,677.3,460.1z M677.3,460.1c-27.3-0.3-37.7,37.4-37.7,37.4h45C697.8,460,677.3,460.1,677.3,460.1z
		 M236.8,404l-27.1,93.1h21.6c0,0,32.1,1.9,42-51.1C281.7,401.1,250.4,404,236.8,404z M236.8,404l-27.1,93.1h21.6
		c0,0,32.1,1.9,42-51.1C281.7,401.1,250.4,404,236.8,404z"/>
</g>
</svg>
