<?xml version="1.0" encoding="utf-8"?>
<!-- Generator: Adobe Illustrator 17.1.0, SVG Export Plug-In . SVG Version: 6.00 Build 0)  -->
<!DOCTYPE svg PUBLIC "-//W3C//DTD SVG 1.1//EN" "http://www.w3.org/Graphics/SVG/1.1/DTD/svg11.dtd">
<svg version="1.1" id="Layer_1" xmlns="http://www.w3.org/2000/svg" xmlns:xlink="http://www.w3.org/1999/xlink" x="0px" y="0px"
	 viewBox="0 0 1000 1000" enable-background="new 0 0 1000 1000" xml:space="preserve">
<g>
	<g>
		<path fill="#777777" d="M506,423v22h25v-22H506z M506,458v93h25v-93H506z"/>
		<path fill="#777777" d="M568.7,472.9h0.6c5.7-10.6,12-16,22.9-16c2.8,0,4.3,0.2,5.8,0.8v21.6h-0.6c-16.3-1.7-27.8,6.9-27.8,26.5
			v45.4h-24.7v-93.3h23.8L568.7,472.9L568.7,472.9z"/>
		<path fill="#777777" d="M646,423v22h25v-22H646z M646,458v93h25v-93H646z"/>
		<path fill="#777777" d="M708.9,470.8h0.6c6.3-10,14.9-15.3,27.6-15.3c19.3,0,32.2,14.6,32.2,35v60.9h-24.7v-57.2
			c0-10-5.8-17-16.3-17c-10.9,0-18.9,8.7-18.9,21.5v52.9h-24.7v-93.3h24.1V470.8L708.9,470.8z"/>
		<path fill="#777777" d="M827.6,535.4c-14,0-21.9-9.4-23.8-23.4h67.6c0-34-15.9-56.3-46-56.3c-27.3,0-46,21.4-46,49
			c0,27.8,17.5,49.6,48.3,49.6c23.9,0,38.6-14.3,42.2-30.3h-24.4C842.9,531,837.3,535.4,827.6,535.4z M825.8,475.1
			c11.2,0,19,7.9,19.8,19.9h-41.4C806.3,482,812.7,474.9,825.8,475.1z"/>
		<path fill="#777777" d="M877.1,521.2H900c1.7,10.7,9.2,15.5,20.4,15.5c10.9,0,17-4.1,17-10.7c0-8.9-11.8-9.8-24.5-12.4
			c-16.7-3.2-33.1-7.8-33.1-28.2c0-20.2,16.7-29.8,38-29.8c24.5,0,38.2,12.1,40,31h-22.4c-1.1-10-7.5-13.7-17.9-13.7
			c-9.7,0-16,3.7-16,10.4c0,8,12.4,8.7,25.6,11.5c15.6,3.2,33,7.7,33,29.4c0,18.7-16,30.1-39.3,30.1
			C893.7,554.1,878.7,541,877.1,521.2z"/>
		<path fill="#777777" d="M448,423h-28.8l-52,128h29.5l9.7-26h53.1l9.8,26h29.6L448,423z M413.3,503l19-54.6L452,503H413.3z"/>
		<rect x="607.7" y="422.9" fill="#777777" width="24.7" height="128.4"/>
	</g>
	<g>
		<path fill="#777777" d="M187.6,352.4c-81.6,0-147.7,66.3-147.7,147.7c0,81.4,66.1,147.5,147.7,147.5c81.4,0,147.5-66,147.5-147.5
			C335.1,418.5,269,352.4,187.6,352.4z M187.6,449h-14.4c-15.3,0-25.3-0.2-30.7,1.6c-5.2,1.5-9,3.4-11.2,6.5c-2,2.5-2.6,5.7-2.6,8.6
			c0,3.1,0.3,6,3.4,10c3.7,3.8,10,8.6,22.1,16.1c24.2,15.2,31.4,27.2,31.4,43c0,25.8-24.2,50.3-64.9,50.3c-12.3,0-29.3-1.8-36.5-4.2
			l-3.8-1.1c1.5-4.9,6.3-18.4,8.4-24.1l3.8,0.9c8,2,20.5,3.1,28.8,3.1c23.8,0,33-10.7,33-20.1c0-8.6-4.6-13.3-28.2-27.6
			c-22.1-13.7-29.8-25.5-29.8-41.9c0-19.8,12.6-34.6,31-41.9c10.9-4.1,25.9-5.3,49.2-5.3h21.2L187.6,449z M288,427.9
			c-4.6,11.6-49.2,123.1-49.2,123.1H209c0,0,35.3-89.3,41.1-102.7c-4.1,0-7.2,0.7-23.3,0.7h-23.9l10.3-26h72.2
			C288.8,423,289.4,425.3,288,427.9z"/>
	</g>
</g>
</svg>
