<?xml version="1.0" encoding="utf-8"?>
<!-- Generator: Adobe Illustrator 17.1.0, SVG Export Plug-In . SVG Version: 6.00 Build 0)  -->
<!DOCTYPE svg PUBLIC "-//W3C//DTD SVG 1.1//EN" "http://www.w3.org/Graphics/SVG/1.1/DTD/svg11.dtd">
<svg version="1.1" id="Layer_1" xmlns="http://www.w3.org/2000/svg" xmlns:xlink="http://www.w3.org/1999/xlink" x="0px" y="0px"
	 viewBox="0 0 1080 1080" enable-background="new 0 0 1080 1080" xml:space="preserve">
<path fill="#0000FF" d="M609,537.9c0,91.3-22.6,177-63.5,241.5c-31.9,50.1-75.2,86.3-125.4,104.8c-27.1,8.3-72.3,14.1-109.8,14.1
	c-55.6,0-103.2-16.5-142.6-44.6c-20.5-14.6-38.8-32.4-54.8-52.5c-53.9-68.4-81.6-164.1-81.6-259.2c0-91.3,22.6-177,63.5-241.5
	c31.9-50.1,75.2-86.3,125.4-104.8c30.5-9.4,63.1-14.1,96.9-14.1c64.3,0,114.4,21.3,152.4,49.2c22.5,16.4,40.6,35.1,55.1,53.1
	c2.2,2.7,4.3,5.4,6.3,8.1C580.5,357.8,609,447.4,609,537.9z M433.9,287.9c-35.1-25.5-75.9-39.6-116.9-39.6
	c-26.1,0-51.4,3.6-75.1,10.6l-1.2,0.3c-105.9,41-143.5,178.1-143.5,282.9c0,86.5,21,152.6,52.9,199.6L433.9,287.9z M543.1,537.9
	c0-92.9-27-155.3-55.3-195.2L203.5,796.7c33,23.5,70.4,35.1,106.8,35.1c26,0,64.6-3.7,88-10.6l1.2-0.4
	C505.4,779.8,543.1,642.7,543.1,537.9z"/>
<path fill="#0000FF" d="M1042.1,831.4v66.9H884.8l0,0H818l0,0H660.7v-66.9H818V248.6H660.7v-66.9H818l0,0h66.9l0,0v66.9v582.8
	L1042.1,831.4L1042.1,831.4z"/>
</svg>
