<?xml version="1.0" encoding="utf-8"?>
<!-- Generator: Adobe Illustrator 17.1.0, SVG Export Plug-In . SVG Version: 6.00 Build 0)  -->
<!DOCTYPE svg PUBLIC "-//W3C//DTD SVG 1.1//EN" "http://www.w3.org/Graphics/SVG/1.1/DTD/svg11.dtd">
<svg version="1.1" id="Layer_1" xmlns="http://www.w3.org/2000/svg" xmlns:xlink="http://www.w3.org/1999/xlink" x="0px" y="0px"
	 viewBox="0 0 1080 1080" enable-background="new 0 0 1080 1080" xml:space="preserve">
<g>
	<path fill="#FFFFFF" d="M132,298.7H948c44,0,79.6,35.6,79.6,79.6v1.6c0,44-35.6,79.6-79.6,79.6H132c-44,0-79.6-35.6-79.6-79.6v-1.6
		C52.4,334.4,88.1,298.7,132,298.7z"/>
	<path fill="#FFFFFF" d="M132,620.4H948c44,0,79.6,35.6,79.6,79.6v1.6c0,44-35.6,79.6-79.6,79.6H132c-44,0-79.6-35.6-79.6-79.6V700
		C52.4,656.1,88.1,620.4,132,620.4z"/>
</g>
</svg>
