<?xml version="1.0" encoding="utf-8"?>
<!-- Generator: Adobe Illustrator 17.1.0, SVG Export Plug-In . SVG Version: 6.00 Build 0)  -->
<!DOCTYPE svg PUBLIC "-//W3C//DTD SVG 1.1//EN" "http://www.w3.org/Graphics/SVG/1.1/DTD/svg11.dtd">
<svg version="1.1" id="Layer_1" xmlns="http://www.w3.org/2000/svg" xmlns:xlink="http://www.w3.org/1999/xlink" x="0px" y="0px"
	 viewBox="0 0 1080 1080" enable-background="new 0 0 1080 1080" xml:space="preserve">
<g>
	<path fill="#222222" d="M399.8,614.1c8.6-6.2,18.1-10.9,28.7-14c12.1-3.9,25.9-6.2,41.5-7c-3.1,1.2-5.7,2.7-7.6,4.7
		c-2,2-3.7,4.5-5.3,7.6c-1.6,3.1-2.3,7-2.3,11.7v63.7L387,710.1c-4.3,5.1-9.6,10.8-15.8,17.3c-6.2,6.4-12.7,12.3-19.3,17.5
		c-6.6,5.3-13.4,9.5-20.2,12.9c-6.8,3.3-13.2,4.4-19,3.2c-14.8-2-30.8-5.7-48-11.1c-17.2-5.5-34.7-11.3-52.6-17.5
		s-35.6-12.2-52.9-17.8c-17.4-5.6-33.4-9.8-48.3-12.6c-10.1-1.6-19.5,0-28.1,4.7s-15,11.5-19.3,20.5c-2,4.7-3.3,9.9-4.1,15.8
		c-1.2,12.1,1.5,21.8,7.9,29.2s13.5,12.1,21.3,14c5.5,1.2,11.1,1,17-0.6c5.8-1.6,10.3-5.7,13.5-12.3l3.5,1.8c-3.1,7-8,11.7-14.6,14
		c-4.3,1.9-9.2,2.5-14.6,1.8c-0.8,0-2.7-0.4-5.8-1.2c-4.3-1.2-8.5-3-12.6-5.6c-4.1-2.5-7.7-5.8-10.8-9.9c-3.1-4.1-5.6-8.8-7.3-14
		c-1.8-5.3-2.2-11.2-1.5-17.8c1.9-19.1,15.2-39.2,39.8-60.2l1.8-1.8l30.4-31c5.5-5.5,12.3-8.2,20.5-8.2c7,0.8,15,2.2,24,4.4
		c9,2.1,18.5,5,28.7,8.5v-66.7c-2.3-7.4-5.3-13.3-8.8-17.5c-3.5-5.5-8.4-8.7-14.6-9.6c-6.2-1-12.1,0.1-17.5,3.2
		c-4.7,3.1-7.7,6.6-9.1,10.5c-1.4,3.9-1.7,7.4-0.9,10.5c1.9,6.2,5.8,9.4,11.7,9.4c3.1,0,5.6-1.2,7.6-3.5c1.6-1.6,2.3-3.7,2.3-6.4
		c0-1.9-0.6-3.9-1.8-5.8c-1.2-1.9-2.7-2.9-4.7-2.9v-4.1c3.5,0,6.1,1.4,7.9,4.1c1.8,2.7,2.6,5.7,2.6,8.8c0,3.9-1.2,7-3.5,9.4
		c-2.3,3.1-5.8,4.7-10.5,4.7c-8.2,0-13.5-4.1-15.8-12.3c-1.2-3.9-0.9-8.3,0.9-13.2c1.8-4.9,5.4-9.1,10.8-12.6
		c0.8-0.4,3.3-2.2,7.6-5.6c4.3-3.3,9.2-6.9,14.6-10.8l21.1-15.2V518c-2.3-7.4-5.3-13.2-8.8-17.5c-3.5-5.5-8.4-8.7-14.6-9.7
		c-6.2-1-12.1,0.1-17.5,3.2c-4.7,3.1-7.7,6.7-9.1,10.8c-1.4,4.1-1.7,7.7-0.9,10.8c1.9,5.8,5.8,8.8,11.7,8.8c3.1,0,5.6-1,7.6-2.9
		c1.6-1.6,2.3-3.9,2.3-7c0-1.9-0.6-3.9-1.8-5.8s-2.7-2.9-4.7-2.9v-4.1c3.5,0,6.1,1.4,7.9,4.1c1.8,2.7,2.6,5.7,2.6,8.8
		c0,3.9-1.2,7-3.5,9.4c-2.3,3.1-5.8,4.7-10.5,4.7c-8.2,0-13.5-4.1-15.8-12.3c-1.2-3.9-0.9-8.3,0.9-13.2c1.8-4.9,5.4-9.1,10.8-12.6
		c0.8-0.4,3.3-2.2,7.6-5.6c4.3-3.3,9.2-6.9,14.6-10.8l21.1-15.2v-56.7c6.2,0,12.3-0.8,18.1-2.3c5.8-1.6,11.3-3.3,16.4-5.3
		c-10.1-2.7-19.5-6.2-28.1-10.5s-17.3-8.6-26-12.9c-8.8-4.3-17.9-8.1-27.5-11.4s-20.2-5.4-31.9-6.1c-10.1-0.8-19.3,1.6-27.5,7
		c-8.2,5.5-13.8,12.9-17,22.2c-2,6.6-2.9,12.1-2.9,16.4c0,12.1,3.6,21.5,10.8,28.4c7.2,6.8,14.9,10.8,23.1,12c5.5,0.8,11.1,0.1,17-2
		c5.8-2.1,9.7-6.7,11.7-13.7l4.1,1.2c-2.3,7-6.8,12.3-13.5,15.8c-4.7,2-9.6,2.9-14.6,2.9h-5.3c-9-1.6-17.5-5.9-25.4-13.2
		c-8-7.2-12-17.6-12-31.3c0-18.7,11.3-40,33.9-63.7l1.8-1.8l26.9-33.9c4.7-6.2,11.3-9.7,19.9-10.5c10.9-0.4,23,1.5,36.3,5.6
		s26.8,8.9,40.6,14.3c13.8,5.5,27.6,10.8,41.2,16.1c13.6,5.3,26.5,8.7,38.6,10.2c11.7,1.6,22.6-0.7,32.8-6.7
		c10.1-6,17.2-14.7,21.1-26c1.9-5.5,2.7-9.7,2.3-12.9l5.8-0.6c0.4,6.6-1.4,13.7-5.3,21.3c-3.9,7.6-8.5,14.9-13.7,21.9
		s-10.5,13.3-15.8,18.7c-5.3,5.5-9.1,9.4-11.4,11.7c-7.8,9-16.3,17.3-25.4,24.9c-9.2,7.6-18,11.4-26.6,11.4
		c-3.5,0.4-6.8,0.5-9.9,0.3s-6.2-0.5-9.4-0.9v250.9c-4.3,3.1-8.7,5.8-13.2,7.9c-4.5,2.1-8.9,4.2-13.2,6.1c5.8,2,11.7,4.1,17.5,6.4
		c5.8,2.3,11.9,4.7,18.1,7V405.9c1.9,0.4,3.7,0.6,5.3,0.6c1.6,0,3.1,0,4.7,0h5.3c5.8-0.8,11.6-2.9,17.3-6.4
		c5.6-3.5,11.1-7.7,16.4-12.6s10.3-10.1,15.2-15.8c4.9-5.6,9.6-11.2,14.3-16.7c7.8-9.4,14.6-17.1,20.5-23.1c5.8-6,11.5-8.7,17-7.9
		c13.3,10.5,26.1,19.3,38.6,26.3c10.1,6.2,20.6,11.4,31.3,15.5c10.7,4.1,19,4.4,24.9,0.9c-6.6,9.4-13.1,17.5-19.3,24.6
		c-5.5,6.2-10.9,12.1-16.4,17.5c-5.5,5.5-10.3,8.6-14.6,9.4c-9.8,2-19.2,1.5-28.4-1.5c-9.2-2.9-17.6-6.9-25.4-12
		s-14.6-10.4-20.5-16.1c-5.8-5.6-10.3-10.2-13.5-13.7c-0.8,0.8-1.6,1.7-2.3,2.6c-0.8,1-1.6,1.9-2.3,2.6V507H387
		c0.4-3.1,0-6.2-1.2-9.4l3.5-1.8c3.1,5.8,2.9,12.7-0.6,20.5s-7.6,15.8-12.3,24c-3.1,5.8-6.1,11.7-9.1,17.5
		c-2.9,5.8-4.4,10.9-4.4,15.2s1.4,8.2,4.1,11.7c2.7,2,5.8,2.9,9.4,2.9c2.7,0,5.2-0.6,7.3-1.8c2.1-1.2,3.2-2.9,3.2-5.3h4.1
		c0,3.5-1.6,6.2-4.7,8.2s-6.4,2.9-9.9,2.9c-5.1,0-9-1.4-11.7-4.1c-3.9-3.5-5.8-8.4-5.8-14.6c0-3.1,0.6-6.2,1.8-9.4h-29.8v75.4
		c0,7.8-2,14.9-6.1,21.3c-4.1,6.4-9.6,11.4-16.7,14.9l-21.1,9.4c19.9,6.6,38.6,11.9,56.1,15.8c17.5,3.9,32.2,4.1,43.9,0.6v-62
		C387,628.8,391.2,620.4,399.8,614.1z"/>
	<path fill="#222222" d="M1025,366.7c-2,2.3-3.9,4.9-5.8,7.6c-3.1,4.3-7.6,9.9-13.5,17v118.1c0,12.1-2.2,22.6-6.7,31.6
		s-10.3,16.6-17.5,22.8s-15.4,11.1-24.6,14.6c-9.2,3.5-18.3,5.8-27.5,7s-17.9,1.3-26.3,0.3c-8.4-1-15.5-2.8-21.3-5.6v59.1
		c0,7.8-2,15-6.1,21.6s-9.7,11.5-16.7,14.6L829.1,689c9.7,4.3,19.4,8,29,11.1c9.5,3.1,18.6,5.4,27.2,6.7c8.6,1.4,16.4,1.7,23.4,0.9
		s13.1-3.1,18.1-7c-10.1,12.5-20.3,23.6-30.4,33.3c-8.6,8.2-17.8,15.7-27.8,22.5c-9.9,6.8-19,9.8-27.2,9.1
		c-16-1.2-31.6-4.7-46.8-10.5s-30.1-12.3-44.7-19.3c-14.6-7-29.2-13.7-43.9-20.2c-14.6-6.4-29.3-11-44.2-13.7
		c-10.1-1.6-19.5,0-28.1,4.7s-15,11.5-19.3,20.5c-2,4.7-3.3,9.9-4.1,15.8c-1.2,12.1,1.5,21.8,7.9,29.2s13.5,12.1,21.3,14
		c5.5,1.2,11.1,1,17-0.6c5.8-1.6,10.1-5.7,12.9-12.3l4.1,1.8c-3.1,7-8,11.7-14.6,14c-4.3,1.9-9.2,2.5-14.6,1.8
		c-1.6,0-3.5-0.4-5.8-1.2c-9-2-17-7-24-15.2s-9.7-18.9-8.2-32.2c1.9-19.1,15.2-39.2,39.8-60.2l1.8-1.8l30.4-31
		c5.5-5.5,12.3-8.2,20.5-8.2c7.4,0.8,15.5,2.4,24.3,5c8.8,2.5,18.2,5.8,28.4,9.7v-68.4c-1.2-3.9-2.5-7.3-4.1-10.2s-3.1-5.4-4.7-7.3
		c-3.5-5.5-8.4-8.7-14.6-9.6c-6.2-1-12.1,0.1-17.5,3.2c-4.7,3.1-7.7,6.6-9.1,10.5c-1.4,3.9-1.7,7.4-0.9,10.5
		c1.2,6.2,5.1,9.4,11.7,9.4c3.1,0,5.6-1.2,7.6-3.5c1.6-2.3,2.3-4.5,2.3-6.4s-0.6-3.9-1.8-5.8c-1.2-1.9-2.9-2.9-5.3-2.9v-4.1
		c3.5,0,6.2,1.4,8.2,4.1c1.9,2.7,2.9,5.7,2.9,8.8c0,3.9-1.2,7-3.5,9.4c-2.3,3.1-5.8,4.7-10.5,4.7c-8.6,0-13.8-4.1-15.8-12.3
		c-1.2-3.9-0.9-8.3,0.9-13.2c1.8-4.9,5.4-9.1,10.8-12.6c0.8-0.4,3.3-2.2,7.6-5.6c4.3-3.3,9.2-6.9,14.6-10.8l21.1-15.2v-10.5
		c-1.2-3.9-2.5-7.3-4.1-10.2c-1.6-2.9-3.1-5.4-4.7-7.3c-3.5-5.1-8.4-8.2-14.6-9.4c-6.2-1.2-12.1-0.2-17.5,2.9
		c-4.7,3.1-7.7,6.7-9.1,10.8c-1.4,4.1-1.7,7.7-0.9,10.8c1.2,5.8,5.1,8.8,11.7,8.8c3.1,0,5.6-1,7.6-2.9c1.6-2.3,2.3-4.7,2.3-7
		c0-1.9-0.6-3.9-1.8-5.8s-2.9-2.9-5.3-2.9v-4.1c3.5,0,6.2,1.4,8.2,4.1c1.9,2.7,2.9,5.7,2.9,8.8c0,3.9-1.2,7-3.5,9.4
		c-2.3,3.1-5.8,4.7-10.5,4.7c-8.6,0-13.8-4.1-15.8-12.3c-1.2-3.9-0.9-8.3,0.9-13.2c1.8-4.9,5.4-9.1,10.8-12.6
		c0.8-0.4,3.3-2.2,7.6-5.6c4.3-3.3,9.2-6.9,14.6-10.8l21.1-15.2v-56.7c6.2,0,12.3-0.8,18.1-2.3c5.8-1.6,11.3-3.3,16.4-5.3
		c-10.1-2.7-19.5-6.2-28.1-10.5s-17.3-8.6-26-12.9c-8.8-4.3-17.9-8.1-27.5-11.4s-20.2-5.4-31.9-6.1c-10.1-0.8-19.3,1.6-27.5,7
		c-8.2,5.5-13.8,12.9-17,22.2c-2,6.6-2.9,12.1-2.9,16.4c0,12.1,3.6,21.5,10.8,28.4c7.2,6.8,14.7,10.8,22.5,12c5.5,0.8,11.1,0.1,17-2
		c5.8-2.1,9.9-6.7,12.3-13.7l3.5,1.2c-1.6,6.6-5.8,11.9-12.9,15.8c-4.7,2-9.6,2.9-14.6,2.9h-5.8c-9-1.6-17.4-5.9-25.1-13.2
		c-7.8-7.2-11.7-17.6-11.7-31.3c0-18.7,11.3-40,33.9-63.7l1.8-1.8l26.9-33.9c4.7-6.2,11.3-9.7,19.9-10.5c10.9-0.4,23,1.5,36.3,5.6
		s26.8,8.9,40.6,14.3c13.8,5.5,27.6,10.8,41.2,16.1c13.6,5.3,26.5,8.7,38.6,10.2c11.7,1.6,22.6-0.7,32.8-6.7
		c10.1-6,17.2-14.7,21.1-26c1.6-4.3,2.3-8.6,2.3-12.9l5.8-0.6c0.4,6.6-1.4,13.7-5.3,21.3c-3.9,7.6-8.5,14.9-13.7,21.9
		s-10.5,13.3-15.8,18.7c-5.3,5.5-9.1,9.4-11.4,11.7c-7.8,9-16.3,17.3-25.4,24.9c-9.2,7.6-18,11.4-26.6,11.4
		c-3.5,0.4-6.8,0.5-9.9,0.3c-3.1-0.2-6.2-0.5-9.4-0.9v250.9c-5.1,3.5-10.2,6.5-15.5,9.1c-5.3,2.5-10.4,4.8-15.5,6.7L814,683V405.9
		c1.9,0.4,3.7,0.6,5.3,0.6s3.1,0,4.7,0h6.4c5.8-1.2,11.5-3.4,17-6.7c5.5-3.3,10.8-7.4,16.1-12.3s10.3-10.1,15.2-15.8
		c4.9-5.6,9.7-11.2,14.3-16.7c7.8-9.4,14.6-17.1,20.5-23.1c5.8-6,11.5-8.7,17-7.9c13.3,10.5,26.1,19.3,38.6,26.3
		c10.1,6.2,20.6,11.4,31.3,15.5C1010.9,370,1019.2,370.3,1025,366.7z M881.7,568.5c5.1,2,10.9,2.2,17.5,0.9
		c6.6-1.4,12.8-4.5,18.4-9.4c5.6-4.9,10.4-11.5,14.3-19.9c3.9-8.4,5.8-18.6,5.8-30.7v-95.9c-11.7-4.7-22.1-11.1-31.3-19.3
		c-9.2-8.2-15.9-14.6-20.2-19.3c-0.8,1.2-2.3,2.9-4.7,5.3v188.3H881.7z"/>
</g>
</svg>
