<?xml version="1.0" encoding="utf-8"?>
<!-- Generator: Adobe Illustrator 17.1.0, SVG Export Plug-In . SVG Version: 6.00 Build 0)  -->
<!DOCTYPE svg PUBLIC "-//W3C//DTD SVG 1.1//EN" "http://www.w3.org/Graphics/SVG/1.1/DTD/svg11.dtd">
<svg version="1.1" id="Layer_1" xmlns="http://www.w3.org/2000/svg" xmlns:xlink="http://www.w3.org/1999/xlink" x="0px" y="0px"
	 viewBox="0 0 1080 1080" enable-background="new 0 0 1080 1080" xml:space="preserve">
<g>
	<circle fill="#0000FF" cx="540.1" cy="539.9" r="81.6"/>
	<path fill="#0000FF" d="M540.2,744c-62.9-0.4-123.5-11.6-180.5-39.2c-38-18.4-71.4-42.8-96.3-77.5c-20.6-28.8-31.4-60.9-29.2-96.5
		c1.8-29.9,13.1-56.5,30.8-80.4c24.4-32.9,56.4-56.3,92.7-74.2c39.2-19.3,80.7-30.8,123.9-36.3c56.1-7.2,111.8-4.6,166.6,9.4
		c54.2,13.8,103.9,36.6,144.6,76.1c24.8,24,42.9,52.1,50,86.4c8.3,39.8-0.5,76.3-22.5,110c-20,30.5-47.2,53.1-78.3,71.4
		c-38,22.4-79.2,36-122.4,43.9C593.4,741.7,566.9,743.9,540.2,744z M544.1,703.7c12.3-0.8,24.6-1.4,36.9-2.6
		c46.1-4.2,90-16,131-37.7c27.1-14.3,50.9-32.8,69.6-57.3c29.2-38.3,31.3-83.3,5.6-124c-18.5-29.3-45.2-49.5-75.3-65.5
		c-41.3-21.9-85.6-33.7-132-37.9c-66.5-6-131,1.6-192.6,28.5c-33.7,14.7-63.9,34.4-86.8,63.9C284.3,491.9,274.2,515,275,542
		c0.8,28.4,12.7,52.1,30.7,73.1c20.3,23.7,45.6,40.7,73.6,54C431.4,693.8,486.7,703.5,544.1,703.7z"/>
</g>
</svg>
