<?xml version="1.0" encoding="utf-8"?>
<!-- Generator: Adobe Illustrator 17.1.0, SVG Export Plug-In . SVG Version: 6.00 Build 0)  -->
<!DOCTYPE svg PUBLIC "-//W3C//DTD SVG 1.1//EN" "http://www.w3.org/Graphics/SVG/1.1/DTD/svg11.dtd">
<svg version="1.1" id="Layer_1" xmlns="http://www.w3.org/2000/svg" xmlns:xlink="http://www.w3.org/1999/xlink" x="0px" y="0px"
	 viewBox="0 0 1080 1080" enable-background="new 0 0 1080 1080" xml:space="preserve">
<rect x="291" y="486" fill="#222222" width="66" height="34"/>
<rect x="258" y="520" fill="#222222" width="33" height="66"/>
<rect x="424" y="719" fill="#222222" width="33" height="66"/>
<rect x="457" y="785" fill="#222222" width="33" height="67"/>
<rect x="723" y="752" fill="#222222" width="33" height="67"/>
<rect x="756" y="686" fill="#222222" width="33" height="66"/>
<rect x="424" y="195" fill="#222222" width="66" height="33"/>
<rect x="357" y="520" fill="#222222" width="40" height="33"/>
<rect x="291" y="586" fill="#222222" width="33" height="33"/>
<rect x="324" y="619" fill="#222222" width="33" height="33"/>
<rect x="357" y="652" fill="#222222" width="33" height="34"/>
<rect x="390" y="686" fill="#222222" width="34" height="33"/>
<rect x="490" y="852" fill="#222222" width="199" height="33"/>
<rect x="689" y="819" fill="#222222" width="34" height="33"/>
<rect x="789" y="652" fill="#222222" width="33" height="34"/>
<rect x="789" y="460" fill="#222222" width="33" height="226"/>
<rect x="723" y="426" fill="#222222" width="33" height="34"/>
<rect x="715" y="426" fill="#222222" width="74" height="34"/>
<rect x="614" y="360" fill="#222222" width="75" height="33"/>
<rect x="689" y="393" fill="#222222" width="34" height="202"/>
<rect x="590" y="327" fill="#222222" width="33" height="217"/>
<rect x="514" y="327" fill="#222222" width="96" height="33"/>
<rect x="490" y="228" fill="#222222" width="33" height="281"/>
<rect x="390" y="228" fill="#222222" width="34" height="358"/>
</svg>
