<?xml version="1.0" encoding="utf-8"?>
<!-- Generator: Adobe Illustrator 17.1.0, SVG Export Plug-In . SVG Version: 6.00 Build 0)  -->
<!DOCTYPE svg PUBLIC "-//W3C//DTD SVG 1.1//EN" "http://www.w3.org/Graphics/SVG/1.1/DTD/svg11.dtd">
<svg version="1.1" id="Layer_1" xmlns="http://www.w3.org/2000/svg" xmlns:xlink="http://www.w3.org/1999/xlink" x="0px" y="0px"
	 viewBox="0 0 1080 1080" enable-background="new 0 0 1080 1080" xml:space="preserve">
<path fill="#222222" d="M821.9,332.6v-37.8h-37.8V257H634v37.8h-37.8v37.8h-37.8v36.7h-37.8v-37.8h-37.8v-37.8H445V256H294.8v37.8
	H257v37.8h-37.8v191.2H257v37.8h37.8v37.8h37.8v37.8h37.8v37.8h37.8v37.8H445v37.8h37.8v37.8h37.8v37.8h37.8v-36.7h37.8v-37.8H634
	v-37.8h37.8V675h36.7v-37.8h37.8v-37.8h37.8v-37.8h37.8v-37.8h37.8V332.6H821.9z M371.5,330.5h-37.8v37.8h-37.8v116.6h-37.8V368.3
	h37.8v-37.8h37.8v-37.8h37.8V330.5z"/>
</svg>
