   <svg xmlns="http://www.w3.org/2000/svg" xmlns:xlink="http://www.w3.org/1999/xlink" version="1.1" id="Layer_1" x="0px" y="0px" viewBox="1.8000001907348633 0 775.9000244140625 303.5999755859375" enable-background="new 0 0 777.7 303.6" xml:space="preserve"
                style="box-shadow: none; border-radius: 0px; opacity: 1;" preserveAspectRatio="xMidYMid meet" fill="#FFFFFF" fill-opacity="1">
                <path d="M71.4,66.4c0.1-5.1-1.5-9.4-5-13C62.9,49.8,58.4,48,53,48c-3.3,0-6.3,0.5-8.8,1.6c-2.5,1.1-4.7,2.4-6.5,4.1  c-1.8,1.7-3.2,3.6-4.2,5.8c-1,2.2-1.6,4.5-1.7,6.9H71.4z M96.8,109.2c-4.8,6.1-10.9,10.9-18.2,14.2c-7.3,3.3-14.9,5-22.8,5  c-7.5,0-14.5-1.2-21.1-3.6s-12.3-5.8-17.2-10.3C12.6,110,8.8,104.7,6,98.4c-2.8-6.3-4.2-13.3-4.2-21c0-7.7,1.4-14.7,4.2-21  s6.6-11.6,11.5-16.1c4.9-4.5,10.6-7.9,17.2-10.3c6.6-2.4,13.6-3.6,21.1-3.6c6.9,0,13.2,1.2,18.9,3.6c5.7,2.4,10.5,5.8,14.4,10.3  c3.9,4.5,7,9.8,9.1,16.1c2.1,6.3,3.2,13.3,3.2,21v9.4H31.8c1.2,5.7,3.8,10.3,7.8,13.7c4,3.4,8.9,5.1,14.8,5.1  c4.9,0,9.1-1.1,12.5-3.3c3.4-2.2,6.4-5,8.9-8.5L96.8,109.2z"></path>
                <polygon points="104.4,28.8 136.8,28.8 161.4,94.8 161.8,94.8 184.6,28.8 214.8,28.8 176.4,126 144.6,126 "></polygon>
                <path d="M287.4,66.4c0.1-5.1-1.5-9.4-5-13c-3.5-3.6-7.9-5.4-13.4-5.4c-3.3,0-6.3,0.5-8.8,1.6c-2.5,1.1-4.7,2.4-6.5,4.1  c-1.8,1.7-3.2,3.6-4.2,5.8c-1,2.2-1.6,4.5-1.7,6.9H287.4z M312.8,109.2c-4.8,6.1-10.9,10.9-18.2,14.2c-7.3,3.3-14.9,5-22.8,5  c-7.5,0-14.5-1.2-21.1-3.6s-12.3-5.8-17.2-10.3c-4.9-4.5-8.7-9.8-11.5-16.1c-2.8-6.3-4.2-13.3-4.2-21c0-7.7,1.4-14.7,4.2-21  c2.8-6.3,6.6-11.6,11.5-16.1c4.9-4.5,10.6-7.9,17.2-10.3c6.6-2.4,13.6-3.6,21.1-3.6c6.9,0,13.2,1.2,18.9,3.6  c5.7,2.4,10.5,5.8,14.4,10.3c3.9,4.5,7,9.8,9.1,16.1c2.1,6.3,3.2,13.3,3.2,21v9.4h-69.6c1.2,5.7,3.8,10.3,7.8,13.7  c4,3.4,8.9,5.1,14.8,5.1c4.9,0,9.1-1.1,12.5-3.3c3.4-2.2,6.4-5,8.9-8.5L312.8,109.2z"></path>
                <path d="M329,28.8h28.8V42h0.4c0.9-1.9,2.3-3.7,4-5.6c1.7-1.9,3.8-3.5,6.2-5c2.4-1.5,5.1-2.7,8.2-3.6c3.1-0.9,6.4-1.4,10-1.4  c7.6,0,13.7,1.2,18.4,3.5c4.7,2.3,8.3,5.6,10.9,9.7c2.6,4.1,4.4,9,5.3,14.6c0.9,5.6,1.4,11.7,1.4,18.2V126h-30V78.4  c0-2.8-0.1-5.7-0.3-8.7c-0.2-3-0.8-5.8-1.8-8.3c-1-2.5-2.5-4.6-4.6-6.2c-2.1-1.6-5-2.4-8.9-2.4c-3.9,0-7,0.7-9.4,2.1  c-2.4,1.4-4.2,3.3-5.5,5.6c-1.3,2.3-2.1,5-2.5,7.9c-0.4,2.9-0.6,6-0.6,9.2V126h-30V28.8z"></path>
                <path d="M508.1,52.8h-26.4v32.4c0,2.7,0.1,5.1,0.4,7.3c0.3,2.2,0.9,4.1,1.8,5.7c0.9,1.6,2.4,2.8,4.3,3.7c1.9,0.9,4.5,1.3,7.7,1.3  c1.6,0,3.7-0.2,6.3-0.5c2.6-0.3,4.6-1.1,5.9-2.3v25c-3.3,1.2-6.8,2-10.4,2.4c-3.6,0.4-7.1,0.6-10.6,0.6c-5.1,0-9.7-0.5-14-1.6  c-4.3-1.1-8-2.8-11.2-5.1c-3.2-2.3-5.7-5.4-7.5-9.1c-1.8-3.7-2.7-8.3-2.7-13.6V52.8h-19.2v-24h19.2V0h30v28.8h26.4V52.8z"></path>
                <path d="M613.3,126h-28.8v-13.2h-0.4c-1.1,1.9-2.4,3.7-4.1,5.6c-1.7,1.9-3.7,3.5-6.1,5c-2.4,1.5-5.1,2.7-8.2,3.6  c-3.1,0.9-6.4,1.4-10,1.4c-7.6,0-13.8-1.2-18.5-3.5c-4.7-2.3-8.4-5.6-11-9.7c-2.6-4.1-4.3-9-5.2-14.6c-0.9-5.6-1.3-11.7-1.3-18.2  V28.8h30v47.6c0,2.8,0.1,5.7,0.3,8.7c0.2,3,0.8,5.8,1.8,8.3c1,2.5,2.5,4.6,4.6,6.2c2.1,1.6,5,2.4,8.9,2.4c3.9,0,7-0.7,9.4-2.1  c2.4-1.4,4.2-3.3,5.5-5.6c1.3-2.3,2.1-5,2.5-7.9c0.4-2.9,0.6-6,0.6-9.2V28.8h30V126z"></path>
                <path d="M624.9,28.8h28.8V42h0.4c0.9-1.9,2.3-3.7,4-5.6c1.7-1.9,3.8-3.5,6.2-5c2.4-1.5,5.1-2.7,8.2-3.6c3.1-0.9,6.4-1.4,10-1.4  c6.8,0,12.8,1.4,18.1,4.2c5.3,2.8,9.2,7.2,11.9,13.2c3.5-6.3,7.7-10.7,12.6-13.4c4.9-2.7,11-4,18.2-4c6.5,0,12,1.1,16.5,3.3  c4.5,2.2,8,5.2,10.6,9c2.6,3.8,4.5,8.3,5.6,13.4c1.1,5.1,1.7,10.6,1.7,16.5V126h-30V69.4c0-4.5-1-8.4-2.9-11.7  c-1.9-3.3-5.4-4.9-10.3-4.9c-3.5,0-6.4,0.6-8.7,1.7c-2.3,1.1-4.2,2.7-5.6,4.7c-1.4,2-2.4,4.3-3,7c-0.6,2.7-0.9,5.5-0.9,8.4V126h-30  V74.6c0-1.7-0.1-3.9-0.2-6.4c-0.1-2.5-0.6-4.9-1.4-7.2c-0.8-2.3-2.1-4.2-3.9-5.8c-1.8-1.6-4.4-2.4-7.9-2.4c-3.9,0-7,0.7-9.4,2.1  c-2.4,1.4-4.2,3.3-5.5,5.6c-1.3,2.3-2.1,5-2.5,7.9c-0.4,2.9-0.6,6-0.6,9.2V126h-30V28.8z"></path>
                <path d="M35.2,209.4c0,7.3,2.1,13.3,6.3,17.8c4.2,4.5,10.1,6.8,17.7,6.8c7.6,0,13.5-2.3,17.7-6.8c4.2-4.5,6.3-10.5,6.3-17.8  c0-7.3-2.1-13.3-6.3-17.8s-10.1-6.8-17.7-6.8c-7.6,0-13.5,2.3-17.7,6.8C37.3,196.1,35.2,202.1,35.2,209.4 M7.6,160.8h27.6v12.8h0.4  c1.2-1.7,2.8-3.5,4.7-5.3c1.9-1.8,4.2-3.4,6.8-4.9c2.6-1.5,5.4-2.7,8.5-3.6c3.1-0.9,6.3-1.4,9.8-1.4c7.2,0,13.7,1.2,19.6,3.7  c5.9,2.5,10.9,5.9,15.1,10.4c4.2,4.5,7.4,9.8,9.7,15.9c2.3,6.1,3.4,12.9,3.4,20.2c0,6.8-1,13.3-3.1,19.5c-2.1,6.2-5,11.7-8.8,16.5  c-3.8,4.8-8.4,8.6-13.9,11.5c-5.5,2.9-11.7,4.3-18.6,4.3c-6.3,0-12.1-1-17.5-2.9c-5.4-1.9-9.8-5.2-13.3-9.9h-0.4v56h-30V160.8z"></path>
                <path d="M125.8,160.8h30v15.6h0.4c3.2-6,7-10.5,11.4-13.5c4.4-3,9.9-4.5,16.6-4.5c1.7,0,3.5,0.1,5.2,0.2c1.7,0.1,3.3,0.4,4.8,0.8  v27.4c-2.1-0.7-4.2-1.2-6.3-1.5c-2.1-0.3-4.2-0.5-6.5-0.5c-5.7,0-10.3,0.8-13.6,2.4c-3.3,1.6-5.9,3.8-7.7,6.7  c-1.8,2.9-3,6.3-3.5,10.3c-0.5,4-0.8,8.4-0.8,13.2V258h-30V160.8z"></path>
                <path d="M265.2,198.4c0.1-5.1-1.5-9.4-5-13c-3.5-3.6-7.9-5.4-13.4-5.4c-3.3,0-6.3,0.5-8.8,1.6c-2.5,1.1-4.7,2.4-6.5,4.1  c-1.8,1.7-3.2,3.6-4.2,5.8c-1,2.2-1.6,4.5-1.7,6.9H265.2z M290.6,241.2c-4.8,6.1-10.9,10.9-18.2,14.2c-7.3,3.3-14.9,5-22.8,5  c-7.5,0-14.5-1.2-21.1-3.6c-6.6-2.4-12.3-5.8-17.2-10.3c-4.9-4.5-8.7-9.8-11.5-16.1c-2.8-6.3-4.2-13.3-4.2-21c0-7.7,1.4-14.7,4.2-21  s6.6-11.6,11.5-16.1c4.9-4.5,10.6-7.9,17.2-10.3c6.6-2.4,13.6-3.6,21.1-3.6c6.9,0,13.2,1.2,18.9,3.6c5.7,2.4,10.5,5.8,14.4,10.3  c3.9,4.5,7,9.8,9.1,16.1c2.1,6.3,3.2,13.3,3.2,21v9.4h-69.6c1.2,5.7,3.8,10.3,7.8,13.7c4,3.4,8.9,5.1,14.8,5.1  c4.9,0,9.1-1.1,12.5-3.3c3.4-2.2,6.4-5,8.9-8.5L290.6,241.2z"></path>
                <path d="M308.1,160.8h28.8V174h0.4c0.9-1.9,2.3-3.7,4-5.6c1.7-1.9,3.8-3.5,6.2-5c2.4-1.5,5.1-2.7,8.2-3.6c3.1-0.9,6.4-1.4,10-1.4  c6.8,0,12.8,1.4,18.1,4.2c5.3,2.8,9.2,7.2,11.9,13.2c3.5-6.3,7.7-10.7,12.6-13.4c4.9-2.7,11-4,18.2-4c6.5,0,12,1.1,16.5,3.3  c4.5,2.2,8,5.2,10.6,9c2.6,3.8,4.5,8.3,5.6,13.4c1.1,5.1,1.7,10.6,1.7,16.5V258h-30v-56.6c0-4.5-1-8.4-2.9-11.7  c-1.9-3.3-5.4-4.9-10.3-4.9c-3.5,0-6.4,0.6-8.7,1.7c-2.3,1.1-4.2,2.7-5.6,4.7c-1.4,2-2.4,4.3-3,7c-0.6,2.7-0.9,5.5-0.9,8.4V258h-30  v-51.4c0-1.7-0.1-3.9-0.2-6.4c-0.1-2.5-0.6-4.9-1.4-7.2c-0.8-2.3-2.1-4.2-3.9-5.8c-1.8-1.6-4.4-2.4-7.9-2.4c-3.9,0-7,0.7-9.4,2.1  c-2.4,1.4-4.2,3.3-5.5,5.6c-1.3,2.3-2.1,5-2.5,7.9c-0.4,2.9-0.6,6-0.6,9.2V258h-30V160.8z"></path>
                <path d="M503.8,209.4c0,7.3,2.1,13.3,6.3,17.8c4.2,4.5,10.1,6.8,17.7,6.8c7.6,0,13.5-2.3,17.7-6.8c4.2-4.5,6.3-10.5,6.3-17.8  c0-7.3-2.1-13.3-6.3-17.8c-4.2-4.5-10.1-6.8-17.7-6.8c-7.6,0-13.5,2.3-17.7,6.8C505.9,196.1,503.8,202.1,503.8,209.4 M473.8,209.4  c0-7.7,1.4-14.7,4.2-21s6.6-11.6,11.5-16.1c4.9-4.5,10.6-7.9,17.2-10.3c6.6-2.4,13.6-3.6,21.1-3.6c7.5,0,14.5,1.2,21.1,3.6  c6.6,2.4,12.3,5.8,17.2,10.3c4.9,4.5,8.7,9.8,11.5,16.1s4.2,13.3,4.2,21c0,7.7-1.4,14.7-4.2,21c-2.8,6.3-6.6,11.6-11.5,16.1  c-4.9,4.5-10.6,7.9-17.2,10.3c-6.6,2.4-13.6,3.6-21.1,3.6c-7.5,0-14.5-1.2-21.1-3.6c-6.6-2.4-12.3-5.8-17.2-10.3  c-4.9-4.5-8.7-9.8-11.5-16.1C475.2,224.1,473.8,217.1,473.8,209.4"></path>
                </svg>