<?xml version="1.0" encoding="utf-8"?>
<!-- Generator: Adobe Illustrator 17.1.0, SVG Export Plug-In . SVG Version: 6.00 Build 0)  -->
<!DOCTYPE svg PUBLIC "-//W3C//DTD SVG 1.1//EN" "http://www.w3.org/Graphics/SVG/1.1/DTD/svg11.dtd">
<svg version="1.1" id="Layer_1" xmlns="http://www.w3.org/2000/svg" xmlns:xlink="http://www.w3.org/1999/xlink" x="0px" y="0px"
	 viewBox="0 0 1500 1500" enable-background="new 0 0 1500 1500" xml:space="preserve">
<g>
	<rect x="855.3" y="1045.1" fill="#A30530" width="201.2" height="420.2"/>
	<path fill="#A30530" d="M239.9,844.3H34.7V643.1h205.2c112.2,0,203.6-91.3,203.6-203.6s-91.3-203.6-203.6-203.6H34.7V34.7h205.2
		c223.2,0,404.8,181.6,404.8,404.8C644.7,662.7,463.1,844.3,239.9,844.3"/>
	<path fill="#A30530" d="M1060.5,844.3H855.3V643.1h205.2c112.3,0,203.6-91.3,203.6-203.6s-91.3-203.6-203.6-203.6H855.3V34.7h205.2
		c223.2,0,404.8,181.6,404.8,404.8C1465.3,662.7,1283.7,844.3,1060.5,844.3"/>
	<path fill="#A30530" d="M239.9,1465.3H34.7v-201.2h205.2c71.8,0,139.1-38.9,175.8-101.5l173.6,101.7
		C516.7,1388.3,382.8,1465.3,239.9,1465.3"/>
</g>
</svg>
