<?xml version="1.0" encoding="utf-8"?>
<!-- Generator: Adobe Illustrator 17.1.0, SVG Export Plug-In . SVG Version: 6.00 Build 0)  -->
<!DOCTYPE svg PUBLIC "-//W3C//DTD SVG 1.1//EN" "http://www.w3.org/Graphics/SVG/1.1/DTD/svg11.dtd">
<svg version="1.1" id="Layer_1" xmlns="http://www.w3.org/2000/svg" xmlns:xlink="http://www.w3.org/1999/xlink" x="0px" y="0px"
	 viewBox="0 0 1080 1080" enable-background="new 0 0 1080 1080" xml:space="preserve">
<path fill="#222222" d="M229,180.7v718.6h621.4V180.7H229z M801.4,705.6h-48.2v48.2H326.9v-48.2h426.2v-48.2h48.2V705.6z
	 M374.4,326.9v95.8h-48.2v-95.8H374.4z M278.6,657.4h47.5v48.2h-47.5V657.4z M753.1,422.6h-48.2v-95.8h48.2V422.6z"/>
<path fill="#222222" d="M180.7,229.7V851h718.6V229.7H180.7z M704.9,326.9h48.2v95.8h-48.2V326.9z M326.2,705.6h-47.5v-48.2h47.5
	V705.6z M326.2,422.6v-95.8h48.2v95.8H326.2z M326.9,705.6h426.2v-48.2h48.2v48.2h-48.2v48.2H326.9V705.6z"/>
<path fill="#222222" d="M277.9,132.5v815.8h524.2V132.5H277.9z M374.4,326.9v95.8h-48.2v-95.8H374.4z M326.2,705.6h-47.5v-48.2h47.5
	V705.6z M326.9,753.8v-48.2h426.2v-48.2h48.2v48.2h-48.2v48.2H326.9z M753.1,422.6h-48.2v-95.8h48.2V422.6z"/>
<path fill="#222222" d="M131.8,277.9v524.2h815.8V277.9H131.8z M753.1,326.9v95.8h-48.2v-95.8H753.1z M374.4,326.9v95.8h-48.2v-95.8
	H374.4z M326.2,705.6h-47.5v-48.2h47.5V705.6z M326.9,753.8v-48.2h426.2v-48.2h48.2v48.2h-48.2v48.2H326.9z"/>
<path fill="#222222" d="M753.1,326.9v95.8h-48.2v-95.8H374.4v95.8h-48.2v-95.8H84.2v427h242.6v-48.2h426.2v-48.2h48.2v48.2h-48.2
	v48.2H995v-427H753.1z M278.6,705.6v-48.2h47.5v48.2H278.6z"/>
<polygon fill="#222222" points="753.1,85 753.1,326.9 704.9,326.9 704.9,422.6 753.1,422.6 753.1,705.6 326.9,705.6 326.9,753.8 
	753.1,753.8 753.1,995.8 326.2,995.8 326.2,422.6 374.4,422.6 374.4,326.9 326.2,326.9 326.2,85 "/>
<rect x="326.2" y="657.4" fill="#222222" width="0.7" height="48.2"/>
</svg>
