<?xml version="1.0" encoding="utf-8"?>
<!-- Generator: Adobe Illustrator 17.1.0, SVG Export Plug-In . SVG Version: 6.00 Build 0)  -->
<!DOCTYPE svg PUBLIC "-//W3C//DTD SVG 1.1//EN" "http://www.w3.org/Graphics/SVG/1.1/DTD/svg11.dtd">
<svg version="1.1" id="Layer_1" xmlns="http://www.w3.org/2000/svg" xmlns:xlink="http://www.w3.org/1999/xlink" x="0px" y="0px"
	 viewBox="0 0 1080 1080" enable-background="new 0 0 1080 1080" xml:space="preserve">
<g>
	<path fill="#222222" d="M540,966.6c-57.6,0-113.4-11.2-166.1-33.5c-50.8-21.5-96.4-52.3-135.6-91.4c-39.2-39.2-70-84.8-91.4-135.6
		c-22.2-52.7-33.5-108.5-33.5-166.1c0-57.6,11.2-113.4,33.5-166.1c21.5-50.8,52.3-96.4,91.4-135.6s84.8-70,135.6-91.4
		c52.6-22.2,108.4-33.5,166.1-33.5c57.6,0,113.4,11.2,166.1,33.5c50.8,21.5,96.4,52.3,135.6,91.4c39.2,39.2,70,84.8,91.4,135.6
		c22.2,52.6,33.5,108.4,33.5,166.1c0,57.6-11.2,113.4-33.5,166.1c-21.5,50.8-52.3,96.4-91.4,135.6c-39.2,39.2-84.8,70-135.6,91.4
		C653.4,955.4,597.6,966.6,540,966.6z M540,145.8c-217.4,0-394.2,176.8-394.2,394.2S322.6,934.2,540,934.2S934.2,757.4,934.2,540
		S757.4,145.8,540,145.8z"/>
</g>
<g>
	<rect x="523.8" y="129.6" fill="#222222" width="32.4" height="820.8"/>
</g>
<g>
	<rect x="129.6" y="523.8" fill="#222222" width="820.8" height="32.4"/>
</g>
<g>
	<path fill="#222222" d="M540,966.6c-61.2,0-117.9-45.9-159.6-129.2c-39.9-79.7-61.8-185.3-61.8-297.4s21.9-217.7,61.8-297.4
		c41.7-83.3,98.4-129.2,159.6-129.2s117.9,45.9,159.6,129.2c39.9,79.7,61.8,185.3,61.8,297.4s-21.9,217.7-61.8,297.4
		C657.9,920.7,601.2,966.6,540,966.6z M540,145.8c-48.4,0-94.7,39.5-130.6,111.2C371.7,332.3,351,432.9,351,540s20.7,207.7,58.4,283
		c35.9,71.7,82.3,111.2,130.6,111.2c48.3,0,94.7-39.5,130.6-111.2c37.7-75.3,58.4-175.8,58.4-283s-20.7-207.7-58.4-283
		C634.7,185.3,588.4,145.8,540,145.8z"/>
</g>
</svg>
